<svg xmlns="http://www.w3.org/2000/svg" width="151.328" height="28.808" viewBox="0 0 151.328 28.808">
  <g id="Al-futtin_Logo" data-name="Al-futtin Logo" transform="translate(-25 -24.328)">
    <g id="Group_83" data-name="Group 83" transform="translate(25 24.328)">
      <path id="Path_4168" data-name="Path 4168" d="M159.937,216.938l-.99,2.473H158.7v-2.473h-2.472v-3.213h-5.438v3.213h-2.225v-3.213h-5.191v3.213h-7.082c.011,2.593-.041,10.134-.041,10.134h-3.505V216.938h-8.4v-2.967h8.4v-3.706H119.153v20.267h5.191v-9.886h3.615v6.409l1.834,3.417h.78c0,.017.009.046.012.06H140.9v-9.886h2.472v9.886h5.191v-9.886h2.225v9.886h5.438v-9.886h2.225v6.922l1.484,2.965h12.111V216.938Zm6.673,10.134h-2.966v-6.427h2.966Z" transform="translate(-50.628 -205.057)" fill="#fff" fill-rule="evenodd"/>
      <path id="Path_4169" data-name="Path 4169" d="M109.145,225.461h5.191v3.461h-5.191v-3.461" transform="translate(-47.294 -210.12)" fill="#fff" fill-rule="evenodd"/>
      <path id="Path_4170" data-name="Path 4170" d="M231.718,220.246l1.484,2.967v10.627h-5.191v-9.886h-2.225v9.886H220.6v-9.886h-2.471v9.886h-5.192V220.193s14.583.053,18.785.053" transform="translate(-81.874 -208.365)" fill="#fff" fill-rule="evenodd"/>
      <path id="Path_4171" data-name="Path 4171" d="M201.813,220.272H207v13.594h-5.191V220.272" transform="translate(-78.169 -208.391)" fill="#fff" fill-rule="evenodd"/>
      <path id="Path_4172" data-name="Path 4172" d="M201.813,210.265H207v3.706h-5.191v-3.706" transform="translate(-78.169 -205.057)" fill="#fff" fill-rule="evenodd"/>
      <path id="Path_4173" data-name="Path 4173" d="M99.137,210.265h5.191v20.267H99.137V210.265" transform="translate(-43.959 -205.057)" fill="#fff" fill-rule="evenodd"/>
      <path id="Path_4174" data-name="Path 4174" d="M78.59,210.422l-6.543,19.546h4.959l2.246-6.168h3.672v6.293h4.793V210.381Zm1.891,10,2.443-6.71v6.71Z" transform="translate(-34.933 -205.096)" fill="#fff" fill-rule="evenodd"/>
      <path id="Path_4175" data-name="Path 4175" d="M32.721,202.455,16.389,218.939l3.68,4,4.162-4,4.161,4L24.551,227.1l4.16,4.161,4.01-4.161,4.01,4.161,4.16-4.161L37.05,222.94l4.16-4,4.162,4,3.68-4Zm0,16.047-4.01-3.724,4.01-4.009,4.01,4.009Z" transform="translate(-16.389 -202.455)" fill="#fff" fill-rule="evenodd"/>
    </g>
  </g>
</svg>
