<svg xmlns="http://www.w3.org/2000/svg" width="126.394" height="28.781" viewBox="0 0 126.394 28.781">
  <g id="Bata_Logo" data-name="Bata Logo" transform="translate(-11 -11)">
    <g id="Group_71" data-name="Group 71" transform="translate(11 11)">
      <path id="Path_4094" data-name="Path 4094" d="M957.375,598.787c1.314-6.911,9.451-10.415,15.455-10.081h0a7.868,7.868,0,0,1,5.482,2.139l.007-.007.007.007q.715-.758,1.436-1.511c.281-.292,1.085-.2,1.8-.069a19.321,19.321,0,0,0,2.223.481c.563,0,1.892-.408,3.156-.6s2.463-.16,2.257.351l-1.132,2.8h.021l-3.7,9.149c-.736,1.823,2.147,1.34,6.154-2.9.686.45,1,.535,1.684,2.237a32.6,32.6,0,0,1-11.219,6.615c-4.072,1.4-7.071-.629-8.015-4.016-5.785,5.418-13.846,5.359-16.159-.752a86.084,86.084,0,0,1-10.122,4.373,15.224,15.224,0,0,1-4.042.726,3.621,3.621,0,0,1-3.5-4.594c-3.317,1.468-5.952,2.426-9.753,3.736-4.072,1.4-6.413-.1-7.358-3.489-5.787,5.42-13.85,5.359-16.161-.757-2.272,1.093-5.416,2.7-8.31,3.834a12.081,12.081,0,0,1-14.183-2.593l1.332-2.1a4.048,4.048,0,0,0,6.091.27,8.146,8.146,0,0,0,2.3-7.952c-.391-1.225-1.771-2.165-4.362-1.994l.8-2.135c2.648-.095,4.719-.447,5.862-2.113,1.605-2.338,1.633-5.941-1.811-5.845a7.9,7.9,0,0,0-2.158.415c-.6,1.766-1.648,3.849-2.494,6.038-1.93,4.994-4.092,10.538-6.6,14.111-2.992,4.257-6.191,5.1-8.769,4.926-2.7-.182-4.812-1-7.767-3.664a15.4,15.4,0,0,1,.313-3.027c1.034,1.457,4.6,3.007,5.754,1.313,2.585-3.793,5.429-11.11,7.551-15.832a25.435,25.435,0,0,0-6.213,3.548c.03-.29-.839-.923-.805-1.773,4.029-4.645,11.162-7.486,15.966-8.5,7.343-1.552,15.221.7,16.4,5.346.788,3.094-2.862,6-6.292,6.415,1.974,1.162,4.069,3.18,4.594,5.648a7.732,7.732,0,0,1-.2,3.864c1.153-.536,2.548-1.24,3.467-1.613,1.448-9.928,16.791-13.123,21.025-8.375l1.452-1.511c.28-.292,1.084-.2,1.8-.069a19.282,19.282,0,0,0,2.222.481c.563,0,1.892-.408,3.157-.6s2.462-.16,2.257.351l-4.823,11.953c-1.091,2.7,6.917-2.083,7.388-2.342l3.44-7.312-3.543.049.637-3.005,3.914,0c.645-.855.834-1.881,1.689-2.524,1.159-.874,3.8-.4,5.019-1.2a9.741,9.741,0,0,0,2.828-3.312c.839-1.376,3.889-1.023,3.306.286l-2.729,6.827,3.449-.032c1.638.086.231,2.808-1.632,2.829l-2.849.052-3.31,8.567c-1.085,2.809,3.142.313,6.311-1.551Zm-31.685-5.862a2.172,2.172,0,0,0-2.488-1.546c-2.317.247-4.555,2.819-5.7,4.608-1.84,2.867-1.4,7.092,1.521,6.306,3.095-.832,7.219-7.479,6.669-9.368Zm50.932,0a2.172,2.172,0,0,0-2.488-1.546c-2.317.247-4.555,2.819-5.7,4.608-1.84,2.867-1.4,7.092,1.521,6.306,3.095-.832,7.219-7.479,6.669-9.368Z" transform="translate(-865.833 -579.073)" fill="#fff" fill-rule="evenodd"/>
    </g>
  </g>
</svg>
