<svg xmlns="http://www.w3.org/2000/svg" width="125.328" height="24.19" viewBox="0 0 125.328 24.19">
  <g id="Fossil_Logo" data-name="Fossil Logo" transform="translate(-256.315 -378.427)">
    <path id="Path_4095" data-name="Path 4095" d="M301.7,378.549a25.174,25.174,0,0,1,9.662,1.02l.086.114c-.186,1.213-.436,2.415-.681,3.62a22.647,22.647,0,0,0-7.15-1.2,3.646,3.646,0,0,0-2.218.587,2.319,2.319,0,0,0-.333,3,6.184,6.184,0,0,0,2.587,1.886c2.311,1.1,5.06,1.42,6.953,3.281a6.109,6.109,0,0,1,1.728,5.185,6.378,6.378,0,0,1-2.48,4.867,10.362,10.362,0,0,1-6.239,1.46,37.235,37.235,0,0,1-8.294-1.054c.173-1.32.35-2.639.551-3.955,2.973.837,6.171,1.624,9.242.855a2.216,2.216,0,0,0,1.009-3.744c-2.32-1.871-5.567-1.871-7.972-3.6a6.564,6.564,0,0,1-2.982-5.261,7.48,7.48,0,0,1,1.8-5.056,7.726,7.726,0,0,1,4.735-2.009Z" transform="translate(9.842 0.001)" fill="#fff"/>
    <path id="Path_4096" data-name="Path 4096" d="M319.748,378.634a25.66,25.66,0,0,1,10.342.919c-.171,1.261-.407,2.515-.686,3.757a21.879,21.879,0,0,0-7.376-1.2,2.866,2.866,0,0,0-2.332.941,2.463,2.463,0,0,0,.424,3.143c2.6,2.386,6.6,2.207,9.145,4.676a7.031,7.031,0,0,1-1.047,10.231c-2.252,1.389-5.014,1.347-7.565,1.206a36.293,36.293,0,0,1-6.688-.99c.165-1.322.341-2.647.55-3.962a21.5,21.5,0,0,0,7.982,1.113,3.687,3.687,0,0,0,2.47-1.025,2.185,2.185,0,0,0-.33-3.093c-2.376-1.776-5.606-1.793-7.982-3.578a6.5,6.5,0,0,1-2.837-5.148,7.68,7.68,0,0,1,1.564-4.819,7.034,7.034,0,0,1,4.364-2.173Z" transform="translate(14.565 0)" fill="#fff"/>
    <path id="Path_4097" data-name="Path 4097" d="M294.813,386.965a10.053,10.053,0,0,0-4.488-7.016,12.924,12.924,0,0,0-8.96-1.209,10.08,10.08,0,0,0-3.059,1.174,10.278,10.278,0,0,0-4.661,7.273,16.955,16.955,0,0,0,1.064,9.989,9.3,9.3,0,0,0,6.362,5.071,12.994,12.994,0,0,0,8.692-.874,9.6,9.6,0,0,0,4.65-5.788A18.518,18.518,0,0,0,294.813,386.965Zm-6.327,9.736a4.633,4.633,0,0,1-4.062,2.072,4.892,4.892,0,0,1-4.171-1.7c-1.213-1.656-1.356-3.8-1.429-5.783a15.052,15.052,0,0,1,.911-6.458,4.309,4.309,0,0,1,3.223-2.428c1.816-.317,3.989-.034,5.2,1.5,1.258,1.639,1.426,3.81,1.488,5.8C289.663,392.061,289.711,394.6,288.486,396.7Z" transform="translate(4.315 0.005)" fill="#fff"/>
    <path id="Path_4098" data-name="Path 4098" d="M256.315,378.869c5.316-.038,10.634,0,15.952-.018.093,1.27.107,2.544.154,3.818-3.519.049-7.042.01-10.564.018-.031,2.186-.063,4.379.019,6.563,3.1,0,6.2-.05,9.293.025-.02,1.262,0,2.527-.015,3.789-3.1.039-6.21-.011-9.314.025-.025,2.924.014,5.847-.021,8.772-1.834,0-3.668.008-5.5,0q-.008-11.5,0-22.988Z" transform="translate(0 0.107)" fill="#fff"/>
    <path id="Path_4099" data-name="Path 4099" d="M333.251,378.872c1.891-.068,3.786-.017,5.68-.029q.023,11.507,0,23.019c-1.889,0-3.777.025-5.664-.015-.024-7.658.007-15.316-.016-22.975Z" transform="translate(19.487 0.104)" fill="#fff"/>
    <path id="Path_4100" data-name="Path 4100" d="M344.443,378.881c1.892-.028,3.786-.024,5.677-.005.015,6.358-.011,12.718.013,19.075,3.066.024,6.126-.01,9.189.018-.045,1.291-.123,2.581-.178,3.873-4.9.038-9.793.016-14.691.013-.025-7.659,0-15.318-.01-22.973Z" transform="translate(22.321 0.11)" fill="#fff"/>
  </g>
</svg>
