<svg xmlns="http://www.w3.org/2000/svg" width="137.761" height="15.984" viewBox="0 0 137.761 15.984">
  <g id="Gant_Logo" data-name="Gant Logo" transform="translate(-338 97)">
    <g id="Group_84" data-name="Group 84" transform="translate(338 -97)">
      <path id="Path_4176" data-name="Path 4176" d="M230.715,14.4,203.906,1.377h-1.884V16.436h1.811V3.278l26.809,13.157h1.886V1.377h-1.813Z" transform="translate(-129.365 -0.882)" fill="#fff"/>
      <path id="Path_4177" data-name="Path 4177" d="M299.837,1.378V3.045h14.056V16.437H315.7V3.045h14.057V1.378Z" transform="translate(-192 -0.882)" fill="#fff"/>
      <path id="Path_4178" data-name="Path 4178" d="M103.7,9.9l8.307-7.461L120.319,9.9Zm22.913,5.657h2.535L112.012,0,94.871,15.555h2.536l4.584-3.989h20.042Z" transform="translate(-60.75)" fill="#fff"/>
      <path id="Path_4179" data-name="Path 4179" d="M13.906,7.563V9.177H29.043V12.4c-2.619,1.178-6.415,2.087-12.083,2.087C10.2,14.485,2.14,12.4,2.14,8.083S10.373,1.8,16.606,1.8c5.492,0,9.947,1.2,12.492,2.642L30.16,2.972C27.475,1.514,22.794.181,16.606.181,8.97.181,0,2.852,0,8.083S8.845,16.1,16.959,16.1c5.634,0,10.245-.891,13.969-2.733v-5.8Z" transform="translate(0 -0.116)" fill="#fff"/>
    </g>
  </g>
</svg>
