<svg xmlns="http://www.w3.org/2000/svg" width="103.129" height="28.704" viewBox="0 0 103.129 28.704">
  <path id="KFC_Logo" data-name="KFC Logo" d="M62.959,10.248,62.5,12.085s-1.421-.178-3.42,1.49L50.293,20.6l-3.081,2.474s1.463,2.28,3.081,4.763c1.787,2.742,3.763,5.729,4.154,6.149a5.309,5.309,0,0,0,3.828,2.141l-.482,1.963c-3.2,0-5.581.093-7.5,0C44.619,37.84,43,36.013,36.488,25.574c0,0-1.848,6.69-2.3,8.359-.45,1.686,1.9,2.152,1.9,2.152l-.5,1.99H20.855l.034-.135.455-1.827c.749-.054,2.82.193,4.105-4.714.316-.935-.227.759,4.477-16.245.667-2.528-1.257-2.9-1.926-3.07l.449-1.817,14.091-.009-.455,1.826a2.963,2.963,0,0,0-2.42,1.971l-2.52,9.133S48.859,14.242,49,14.11c1.144-1.062-.255-1.954-1.259-2.025l.455-1.816,2.093,0ZM109.567,10a34.884,34.884,0,0,0-4.5.224c-11.8,1.381-18.948,8.82-18.927,16.267C86.161,32.733,91.2,38.749,102.9,38.7c.742,0,1.464-.026,2.164-.069a51.329,51.329,0,0,0,7.612-1l1.35-5.81a25.759,25.759,0,0,1-7.42,1.394,15.011,15.011,0,0,1-1.542-.075C99.7,32.6,96.2,29.133,96.19,24.71c-.013-4.584,3.316-8.188,8.879-9.127a18.194,18.194,0,0,1,2.972-.24c3.588,0,5.4,1.191,6.6,2.752h.971l1.911-6.864A28.388,28.388,0,0,0,109.567,10m-31.045.268h-13.9l-.456,1.816a2.215,2.215,0,0,1,1.922,3.067L59.783,38.075l12.609.021.472-1.968s-2.355-.569-1.743-2.744c.046-.2,1.852-6.8,1.852-6.8l5.549-.005h.231c2.88.01,3.83,1.5,3.83,1.5l1.678-6.8H74.517l1.449-5.349,2.555,0,5.906,0c1.559,0,2.65,1.038,2.65,1.8h.958L89.9,10.268ZM123.1,13.9a1.909,1.909,0,0,0,.567-1.384,1.889,1.889,0,0,0-.566-1.373,1.945,1.945,0,0,0-3.323,1.373,1.9,1.9,0,0,0,.565,1.384,1.842,1.842,0,0,0,1.377.573A1.862,1.862,0,0,0,123.1,13.9m.224-2.98a2.266,2.266,0,0,1,0,3.2,2.259,2.259,0,0,1-3.86-1.605,2.266,2.266,0,0,1,3.86-1.6m-1.265,1.492a.386.386,0,0,0,.254-.388.39.39,0,0,0-.164-.365,1.091,1.091,0,0,0-.534-.089h-.366v.9h.392a1.224,1.224,0,0,0,.417-.055m.648,1.176a.4.4,0,0,0,.023.132l.014.034h-.408a.1.1,0,0,1-.006-.03.051.051,0,0,1,0-.027l-.012-.081v-.2a.6.6,0,0,0-.232-.565,1.066,1.066,0,0,0-.489-.084h-.343v.984H120.8V11.27h.872a1.859,1.859,0,0,1,.678.093.621.621,0,0,1,.389.63.543.543,0,0,1-.248.488,1.01,1.01,0,0,1-.357.119.6.6,0,0,1,.427.24.73.73,0,0,1,.134.387v.184c0,.057,0,.119.006.18" transform="translate(-20.855 -9.997)" fill="#fff"/>
</svg>
