<svg xmlns="http://www.w3.org/2000/svg" width="104.373" height="51.888" viewBox="0 0 104.373 51.888">
  <g id="Puma_Logo" data-name="Puma Logo" transform="translate(-50.996 -7.804)">
    <g id="Group_74" data-name="Group 74" transform="translate(50.996 7.804)">
      <path id="Path_4102" data-name="Path 4102" d="M220.411,29.04c-.929-1.184-2.536-.245-3.246.176-5.068,3.007-5.813,8.313-7.569,11.358-1.4,2.436-3.679,4.223-5.714,4.37a10.157,10.157,0,0,1-4.809-.915,24.248,24.248,0,0,1-6.678-4.4c-1.07-.826-9.379-8.983-16.111-9.316,0,0-.835-1.673-1.046-1.7-.492-.062-1,1-1.357,1.123-.34.113-.91-1.15-1.255-1.095s-.669,1.309-1.329,1.965c-.483.472-1.084.445-1.405,1.028-.122.218-.083.591-.219.949-.271.715-1.219.778-1.219,1.559,0,.843.79,1,1.479,1.6.537.48.589.812,1.239,1.045.555.189,1.381-.429,2.124-.206.61.181,1.195.312,1.333.938.121.579-.009,1.475-.749,1.371a8.13,8.13,0,0,0-2.66-.252c-1.606.183-3.435.707-3.615,2.5a2.054,2.054,0,0,0,2.332,1.938c.825-.163.435-1.136.884-1.61.589-.606,3.929,2.115,7.033,2.115a4.053,4.053,0,0,0,3.243-1.341c.091-.077.2-.242.341-.253a1.221,1.221,0,0,1,.437.195c2.5,2.008,4.389,6.039,13.576,6.087a6.2,6.2,0,0,1,3.967,1.72,10.893,10.893,0,0,1,2.307,4.1,21.865,21.865,0,0,0,5.065,7.17c.136.136,2.193,1.735,2.358,1.855a.991.991,0,0,1,.124.579c-.061,1.523-.282,5.953,3.02,6.154.807.041.6-.527.6-.916a4.618,4.618,0,0,1,.264-2.329c.556-1.085-1.179-1.586-1.129-3.936.037-1.751-1.436-1.453-2.181-2.787a3.605,3.605,0,0,1-.784-2.129c.168-5.321-1.132-8.818-1.781-9.678-.506-.648-.925-.9-.462-1.2,2.756-1.821,3.381-3.514,3.381-3.514,1.466-3.446,2.783-6.592,4.6-7.978a13.488,13.488,0,0,1,1.881-1.262,12.372,12.372,0,0,0,3.083-1.764C220.54,31.586,221.158,30,220.411,29.04Z" transform="translate(-116.376 -28.463)" fill="#fff" fill-rule="evenodd"/>
      <path id="Path_4103" data-name="Path 4103" d="M85.277,122.511h12.1a2.049,2.049,0,0,0,2.044-2.06V97.3H92.5l-.006,21a1.174,1.174,0,1,1-2.348,0l0-21H83.229v23.147A2.057,2.057,0,0,0,85.277,122.511Z" transform="translate(-64.704 -70.623)" fill="#fff" fill-rule="evenodd"/>
      <path id="Path_4104" data-name="Path 4104" d="M137.992,101.462a1.175,1.175,0,0,1,2.35-.018v21.066h6.9V101.445a1.173,1.173,0,0,1,2.346.018v21.048h6.929V99.564a2.255,2.255,0,0,0-2.251-2.26h-20.95a2.253,2.253,0,0,0-2.25,2.26v22.947h6.928Z" transform="translate(-93.999 -70.623)" fill="#fff" fill-rule="evenodd"/>
      <path id="Path_4105" data-name="Path 4105" d="M42.351,116.177h6.991a2.267,2.267,0,0,0,2.269-2.273V99.575A2.234,2.234,0,0,0,49.386,97.3H35.433v25.207h6.918Zm0-15.871h1.176a1.185,1.185,0,0,1,1.171,1.2v10.366a1.17,1.17,0,0,1-1.171,1.184H42.351Z" transform="translate(-35.433 -70.623)" fill="#fff" fill-rule="evenodd"/>
      <path id="Path_4106" data-name="Path 4106" d="M216.717,97.3H205.036a2.253,2.253,0,0,0-2.248,2.26v22.947H209.7v-6.329h2.352v6.329h6.916V99.564A2.253,2.253,0,0,0,216.717,97.3Zm-4.665,15.757H209.7V101.472a1.176,1.176,0,0,1,2.352-.018Z" transform="translate(-137.924 -70.623)" fill="#fff" fill-rule="evenodd"/>
      <path id="Path_4107" data-name="Path 4107" d="M253.742,146.218a3.106,3.106,0,1,0,3.127,3.1A3.1,3.1,0,0,0,253.742,146.218Zm.051,5.768a2.659,2.659,0,0,1-.043-5.316h.043a2.659,2.659,0,0,1,0,5.316Z" transform="translate(-167.263 -100.578)" fill="#fff" fill-rule="evenodd"/>
      <path id="Path_4108" data-name="Path 4108" d="M257.284,151.7a1.043,1.043,0,0,0,.726-1c0-.7-.513-1.062-1.478-1.062h-.709v3.578h.674V151.8l1.064,1.416h.827l-1.153-1.5Zm-.787-.483v-.971h.138c.47,0,.715.156.715.461,0,.342-.255.51-.735.51Z" transform="translate(-170.403 -102.671)" fill="#fff" fill-rule="evenodd"/>
    </g>
  </g>
</svg>
