<svg xmlns="http://www.w3.org/2000/svg" width="133.344" height="19.521" viewBox="0 0 133.344 19.521">
  <g id="Samsung_Logo" data-name="Samsung Logo" transform="translate(-37 -43)">
    <g id="Group_75" data-name="Group 75" transform="translate(37 43)">
      <path id="Path_4109" data-name="Path 4109" d="M101.343,94.118A17.241,17.241,0,0,0,99.242,93a16.593,16.593,0,0,1-2.976-1.7,1.731,1.731,0,0,1-.4-1.971,1.231,1.231,0,0,1,1.259-.692s1.331.073,1.331,1.168v1.544h4.772l-.007-2.273s.366-3.724-5.621-3.887c0,0-4.708-.31-6.059,2.227,0,0-.53.565-.53,2.536V91.38a4.712,4.712,0,0,0,.785,2.7,6.217,6.217,0,0,0,1.643,1.46s2.372,1.277,3.8,2.009c0,0,1.438.82,1.248,2.126a1.406,1.406,0,0,1-1.5,1.285,1.327,1.327,0,0,1-1.27-1.371V98.047H90.624v2.241s-.143,4.286,6.392,4.286c0,0,6.242.127,6.533-4.4V98.351a4.767,4.767,0,0,0-2.206-4.233Z" transform="translate(-28.223 -85.052)" fill="#fff" fill-rule="evenodd"/>
      <path id="Path_4110" data-name="Path 4110" d="M71.755,85.836l-1.6,10.012h-.374l-1.526-9.922H60.287l-.4,18.13h4.719L64.664,90.4h.371l2.5,13.659H72.5L74.972,90.4H75.3l.114,13.655h4.744l-.51-18.22Z" transform="translate(-23.064 -85.162)" fill="#fff" fill-rule="evenodd"/>
      <path id="Path_4111" data-name="Path 4111" d="M39.758,85.927l-3.14,18.125H41.7L43.558,90h.418l1.859,14.054h5.079L47.775,85.927Z" transform="translate(-19.158 -85.177)" fill="#fff" fill-rule="evenodd"/>
      <path id="Path_4112" data-name="Path 4112" d="M167.235,93.842v2.674h1.3v2.87a1.3,1.3,0,1,1-2.6.1V89.554c0-1.023,1.293-1.078,1.293-1.078a1.212,1.212,0,0,1,1.252,1.22v1.51h4.782c.156-2.946-.43-3.659-.43-3.659-1.187-2.665-5.675-2.519-5.675-2.519-6.9,0-6.133,5.292-6.133,5.292v9.6c.148,4.964,6.944,4.459,7.06,4.453,3.023-.335,3.937-1.293,3.937-1.293a2.945,2.945,0,0,0,1.058-1.489,8.8,8.8,0,0,0,.3-2.109V93.842Z" transform="translate(-40.035 -85.026)" fill="#fff" fill-rule="evenodd"/>
      <path id="Path_4113" data-name="Path 4113" d="M147.248,96.928h-.208l-4.856-11.087h-5.805V104.06H141.1l-.283-11.086h.211l5.029,11.086h5.632V85.84h-4.786l.341,11.088Z" transform="translate(-35.903 -85.163)" fill="#fff" fill-rule="evenodd"/>
      <path id="Path_4114" data-name="Path 4114" d="M120.9,99.523s.068,1.5-1.317,1.5a1.368,1.368,0,0,1-1.46-1.458l-.015-13.705h-5.183v13.6s-.533,5.146,6.73,5.146c0,0,6.312.075,6.312-4.911V85.855H120.9V99.523Z" transform="translate(-31.965 -85.165)" fill="#fff" fill-rule="evenodd"/>
      <path id="Path_4115" data-name="Path 4115" d="M26.352,94.117a17.174,17.174,0,0,0-2.1-1.112,16.43,16.43,0,0,1-2.974-1.7,1.728,1.728,0,0,1-.4-1.97,1.23,1.23,0,0,1,1.258-.694s1.331.073,1.331,1.168v1.544h4.774l-.01-2.274s.364-3.723-5.62-3.886a10.732,10.732,0,0,0-1.113,0s-3.626.195-4.921,2.184c-.007.014-.018.025-.026.039s-.529.564-.529,2.536V91.38a4.706,4.706,0,0,0,.785,2.7,6.2,6.2,0,0,0,1.643,1.46s2.371,1.277,3.795,2.007c0,0,1.439.82,1.249,2.128a1.408,1.408,0,0,1-1.5,1.285,1.327,1.327,0,0,1-1.269-1.371V98.045H15.636v2.243s-.142,4.286,6.391,4.286c0,0,6.241.127,6.534-4.4V98.351a4.77,4.77,0,0,0-2.209-4.234Z" transform="translate(-15.636 -85.052)" fill="#fff" fill-rule="evenodd"/>
    </g>
  </g>
</svg>
