<svg xmlns="http://www.w3.org/2000/svg" width="130.863" height="32.478" viewBox="0 0 130.863 32.478">
  <g id="Toysrus_Logo" data-name="Toysrus Logo" transform="translate(-846 -4862)">
    <g id="Group_76" data-name="Group 76" transform="translate(846 4862)">
      <path id="Path_4116" data-name="Path 4116" d="M171.092,22.611h0" transform="translate(-96.705 -14.908)" fill="#fff"/>
      <path id="Path_4117" data-name="Path 4117" d="M173.568,9.142c-7.223-3.6-14.358-3.978-18.8-2.693-8.2,2.381-10.748,12.449-3.147,17.381.46.3.171.927-.406,1.931a17.162,17.162,0,0,1-4.367,5.474c-1.407,1.07-2.319,1.511-1.163,2.83,0,0,2.571,2.777,4.468,3.586,2.289.966,2.862.806,4.566-.736a40.687,40.687,0,0,0,5.756-7.832c1.328-2.192,3.107-2.234,2.864,1.372,0,0-.35,3.471-.446,4.188-.286,2.069-.064,2.787,1.854,2.8,0,0,4.123-.222,5.553-.415,2.013-.264,1.9-.579,2.431-2.112,2.816-8.183,3.055-22.23,3.055-22.23.119-1.88-.5-2.688-2.222-3.549m-5.275,7.576s-2.557,1.694-2.621,1.738a1.243,1.243,0,0,0-.555,1.142c-.016.326-.115,2.639-.121,2.926-.006.32-.149,1.192-1.192.3,0,0-1.742-1.474-2-1.694a1.419,1.419,0,0,0-1.587-.313l-2.729,1.052s-1.643.647-1.03-.777c.593-1.384.991-2.538,1.122-2.908a1.376,1.376,0,0,0-.244-1.313c-.153-.171-1.462-1.842-1.763-2.255,0,0-1.076-1.237.718-1.154,0,0,3.063.065,3.111.071a1.164,1.164,0,0,0,1.035-.581c.505-.766,1.985-2.56,1.677-2.18.259-.312.859-1.1,1.257.2,0,0,.563,1.71.83,2.427.183.485.3.817,1.209,1.1l2.814.982s1.316.393.072,1.236" transform="translate(-82.641 -5.778)" fill="#fff"/>
      <path id="Path_4118" data-name="Path 4118" d="M59.371,32.336a8.152,8.152,0,0,0-5.919-3.8,8.489,8.489,0,0,0-8.079,3.29,7.269,7.269,0,0,0-1.183,6.146,8.034,8.034,0,0,0,9.894,5.688c3.725-1.066,5.809-3.172,6.375-6.428a7.152,7.152,0,0,0-1.087-4.9M50.3,39.341C49.256,39,48.481,37.4,48.858,35.658S50.5,32.7,51.68,33.064c1.047.324,1.817,2.029,1.453,3.775-.39,1.858-1.638,2.89-2.833,2.5" transform="translate(-27.745 -18.078)" fill="#fff"/>
      <path id="Path_4119" data-name="Path 4119" d="M219.769,26.813a18.775,18.775,0,0,0-2.983,9.306,5.99,5.99,0,0,0,2.909,5.634,7.47,7.47,0,0,0,7.52-.288c5.46-3.121,6.073-10.979,5.919-14.525a1.307,1.307,0,0,0-1.37-1.349,16.572,16.572,0,0,0-1.794.074,1.377,1.377,0,0,0-1.306,1.468l-.008.231c-.036,3.294-.267,6.219-1.75,8.017-.971,1.188-2.13,1.661-2.894,1.353A1.953,1.953,0,0,1,223,34.675a14.052,14.052,0,0,1,1.854-5.153l.26-.491a1.361,1.361,0,0,0-.44-1.886c-.362-.183-1.152-.465-1.85-.714l-.841-.3a1.67,1.67,0,0,0-2.214.685" transform="translate(-121.486 -16.522)" fill="#fff"/>
      <path id="Path_4120" data-name="Path 4120" d="M257.977,22.368a6.37,6.37,0,0,0-3.839,5.265c-.34,3.193,4.157,5.418,5.227,5.979,1.289.678,1.337,1.462,1,1.927-.527.728-1.987.523-3.063.1a6.368,6.368,0,0,1-2.755-2.09c-.571-.64-2.305,1.193-2.576,2.472-.125.584.111.861.48,1.384a11.9,11.9,0,0,0,8.389,4.034c1.215.089,4.378.159,6.512-1.76a6.964,6.964,0,0,0,2.13-3.586,4.768,4.768,0,0,0-.648-3.708,12.513,12.513,0,0,0-5.418-3.962c-3.238-1.474-2.613-2.345-1.889-2.746.68-.382,2.983-.113,4.79,1.543.915.839,2.812-1.766,2.025-2.653a9.269,9.269,0,0,0-10.366-2.2" transform="translate(-140.56 -14.373)" fill="#fff"/>
      <path id="Path_4121" data-name="Path 4121" d="M95.837,21.82c-1.8,5.647-9.5,18.557-12.511,19.794a1.372,1.372,0,0,1-.953.165c-1.6-.222-3.587-2.22-4.226-2.957-.286-.326-.9-1.078-.406-1.476,1.878-1.5,4.211-3.783,4.322-5.123a1.215,1.215,0,0,0-.175-.746c-.175-.233-5.055-6.663-5.546-7.347-.831-1.176-.826-1.452.094-1.9s2.385-1.064,3.411-1.462,1.185-.115,1.475.209l4.375,5.5a.568.568,0,0,0,.831-.115c.559-.658,2.921-4.923,3.291-5.595.436-.746,1.154-.541,1.877-.545.768-.006,1.955,0,3.2.064,1.2.062,1.3.4.943,1.534" transform="translate(-44.981 -13.6)" fill="#fff"/>
      <path id="Path_4122" data-name="Path 4122" d="M119.174,25.476a5.52,5.52,0,0,0-2.951,4.837c-.064,2.8,3.814,4.652,4.788,5.071,1.168.5,1.333,1.1,1.124,1.555-.305.672-1,.8-1.819.631-1.483-.3-2.639-1.6-3.806-2.254-.66-.362-1.634.9-1.776,2.027a1.154,1.154,0,0,0,.519,1.163,11.6,11.6,0,0,0,7.806,3.36,7.642,7.642,0,0,0,5.533-1.975,5.4,5.4,0,0,0,1.594-3.057,4.738,4.738,0,0,0-.834-3.176,7.85,7.85,0,0,0-3.7-2.671c-3.191-1.313-2.183-2.638-1.426-2.886.648-.215,1.784-.048,3.673,1.088,1.024.616,2.38-1.8,1.535-2.411-4.236-3.052-8.1-2.64-10.257-1.3" transform="translate(-66.13 -15.914)" fill="#fff"/>
      <path id="Path_4123" data-name="Path 4123" d="M10.075,18.5a79.114,79.114,0,0,0,15.517-1.213c1.408-.233,1.524.467,1.754.917a11.766,11.766,0,0,1,.533,2.828c-.026.5.223,1.225-.62,1.462-2.631.734-3.321.963-5.068,1.48-.807.243-.756.581-.733,1.2a45.114,45.114,0,0,0,2.069,10.471c.34,1.066.492,1.826-.253,2.108-1.035.38-3.921,1.164-4.695,1.325-1.34.28-1.533-.7-1.66-1.206a71.252,71.252,0,0,1-1.811-10.917c-.057-.883-.346-1.71-1.176-1.688-.854.016-1.809.121-3.667.155-.993.022-1.52-.04-1.652-.889a33.507,33.507,0,0,1,.049-5.323c.147-.609.851-.7,1.412-.708" transform="translate(-8.53 -11.996)" fill="#fff"/>
      <path id="Path_4124" data-name="Path 4124" d="M291.286,24.636a1.363,1.363,0,1,1-1.365-1.313,1.341,1.341,0,0,1,1.365,1.313" transform="translate(-160.423 -15.294)" fill="#fff"/>
      <path id="Path_4125" data-name="Path 4125" d="M291.33,24.916A1.12,1.12,0,1,0,290.208,26a1.1,1.1,0,0,0,1.122-1.08" transform="translate(-160.711 -15.575)" fill="#fff"/>
      <path id="Path_4126" data-name="Path 4126" d="M291.356,25.065a.983.983,0,1,1-.985-.951.971.971,0,0,1,.985.951" transform="translate(-160.873 -15.724)" fill="#fff"/>
      <path id="Path_4127" data-name="Path 4127" d="M290.552,25.962V24.506h.457a.514.514,0,0,1,.33.093.312.312,0,0,1,.118.27.427.427,0,0,1-.3.414l.5.678h-.262l-.428-.615h-.2v.615h-.215m.215-.766h.068c.27,0,.4-.108.4-.31,0-.149-.112-.227-.334-.227h-.135Z" transform="translate(-161.503 -15.936)" fill="#fff"/>
    </g>
  </g>
</svg>
