<svg xmlns="http://www.w3.org/2000/svg" width="142.761" height="46.082" viewBox="0 0 142.761 46.082">
  <g id="Unilever_Logo" data-name="Unilever Logo" transform="translate(-64.816 -192.311)">
    <path id="Path_55" data-name="Path 55" d="M105.129,205.03c.223,1.626,2.687,3.817,3.356,3.765.446,0,.616-2.123.616-3.765,0-.942.051-1.679-.446-1.849a3.91,3.91,0,0,1-3.526,1.849Zm.137-.719c1.779,0,3.407-1.421,3.407-2.671a1.043,1.043,0,0,0-.977-1.147.752.752,0,0,1,.172.546c0,.943-1.437,1.987-3,1.987a.654.654,0,0,0-.736.6c0,.48.462.686,1.13.686Zm-.377-1.935a.741.741,0,0,1-.771-.377c-.155-.308-.1-.8-.394-1.028a2.951,2.951,0,0,0,.839.086c.77,0,1.507-.53,2.071-.53a.444.444,0,0,1,.5.478c0,.754-1.523,1.37-2.242,1.37ZM66.6,215.8c.581,0,.46-3.56,1.4-3.56.223,0,.291.223.291.5,0,.8-.394,1.986-.394,2.637,0,.324.085.428.239.428.412,0,1.13-3.92,1.832-3.92.222,0,.324.223.324.446,0,.821-1.043,3.183-1.043,3.851,0,.1.034.188.119.188.429,0,1.285-1.849,1.559-2.773.154-.479.359-.736.547-.736.171,0,.325.189.325.582a14.467,14.467,0,0,1-1.609,4.553c-.581,1.13-1.489,2.756-1.489,3.664a1.818,1.818,0,0,0,.753,1.522c-1.1-.068-1.54-.171-1.952-1.026-1.831,3.645,3.373,3.287,1.592,6.521-.324-.581-2.893-1.181-2.893-4.57,0-2.929,2.568-4.64,2.568-5.856a.783.783,0,0,0-.309-.633c-.564-.479-.581-.873-1.027-.873-.325,0-.718.754-.308,1.42.137.223.257.36.257.565,0,.481-.752,1.763-1.283,1.763s-.942-1.317-.942-3.44c0-1.884.428-3.782.959-3.782.154,0,.2.1.2.24,0,.221-.068.666-.068,1.42,0,.805.189.873.343.873Zm26.224-16.827c.273,0,.325.669.377,1.061.034.206.068.223.155.223.206,0,.53-.787.753-.787a6.667,6.667,0,0,0,2.653.908,3.9,3.9,0,0,0,4.023-4.023c0-2.483-1.747-3.938-4.16-3.938a12.526,12.526,0,0,0-2.431.565c-.274.017-.685-.667-.891-.667-.086,0-.171.17-.171.462,0,.188,0,.787-.207.787-.41,0-2-1.182-2-.754,0,.394,1.06,1.593,1.06,1.9s-1.044.6-1.044.8c0,.377,1.113.446,1.113.925s-1.165.856-1.165,1.215c0,.292,1.165.086,1.165.446s-.856,1.557-.856,1.9c0,.086.017.086.086.086.325,0,1.3-1.114,1.54-1.114Zm-21.962,25.3a.661.661,0,0,1,.582-.7.642.642,0,0,1,.718.581.663.663,0,0,1-.581.72.68.68,0,0,1-.719-.6Zm-1.9.531a1.115,1.115,0,0,0,1.232.958,1.307,1.307,0,0,0,.565-.172,1.038,1.038,0,0,0,1.2.822,1.083,1.083,0,0,0,1.01-1.214.887.887,0,0,0-.1-.394l.12-.017a1.118,1.118,0,0,0-.206-2.227,1.246,1.246,0,0,0-.548.24A1.139,1.139,0,0,0,71,221.941,1.115,1.115,0,0,0,70,223.191a.972.972,0,0,0,.085.342l-.12.017a1.151,1.151,0,0,0-1.01,1.251ZM107.1,193.406a.428.428,0,1,0,.428-.429.423.423,0,0,0-.428.429Zm-9.551,16.227a.718.718,0,1,0,.717-.719.723.723,0,0,0-.717.719Zm.05,2.157a.8.8,0,1,0,.8-.8.8.8,0,0,0-.8.8Zm-2.465,1.455a1.181,1.181,0,1,0,1.181-1.181,1.182,1.182,0,0,0-1.181,1.181Zm.633-2.413a.685.685,0,1,0,.685-.685.688.688,0,0,0-.685.685Zm-2.243,1.37a.685.685,0,1,0,.686-.684.686.686,0,0,0-.686.684Zm1.764-4.005a1.1,1.1,0,1,0,1.1-1.1,1.1,1.1,0,0,0-1.1,1.1Zm1.284-2.106a.651.651,0,1,0,.651-.651.651.651,0,0,0-.651.651Zm-3.1,1.644a.651.651,0,1,0,.65-.65.651.651,0,0,0-.65.65Zm-.086,2.225a1.044,1.044,0,1,0,1.045-1.044,1.038,1.038,0,0,0-1.045,1.044Zm-2.156,1.1a.976.976,0,1,0,.975-.976.986.986,0,0,0-.975.976Zm.582-2.414a.684.684,0,1,0,.684-.685.686.686,0,0,0-.684.685Zm-2.277,25.233a.684.684,0,1,0,.685-.686.686.686,0,0,0-.685.686ZM71.116,205.509a.684.684,0,1,0,.684-.685.686.686,0,0,0-.684.685Zm-.891-1.54a.685.685,0,1,0,.686-.686.687.687,0,0,0-.686.686Zm.737,16.843c.719,0,1.317-.53,1.317-1.711v-1.746a2.99,2.99,0,0,1,.5-1.952,3.09,3.09,0,0,0-.051.685c0,1.472.821,2.482.821,3.9,0,.529-.154.821-.564.821-.394,0-.36-.359-.446-.359-.068,0-.171.222-.171.461a.926.926,0,0,0,.976.926,1.175,1.175,0,0,0,1.112-1.2c0-1.54-1.2-3.251-1.2-4.9a3.838,3.838,0,0,1,.342-1.575c0,3.408,2.893,5.89,2.893,7.311a.571.571,0,0,1-.6.582.559.559,0,0,1-.581-.548c0-.12-.017-.154-.068-.154a.874.874,0,0,0-.412.787,1.281,1.281,0,0,0,1.318,1.249,1.516,1.516,0,0,0,1.507-1.557c0-1.8-3.509-4.52-3.509-7.43a4.023,4.023,0,0,1,.445-1.917,5.886,5.886,0,0,0-2.962,5.085c0,1.471-.051,2.207-.8,2.207-.394,0-.5-.359-.634-.359-.1,0-.155.309-.155.394a.937.937,0,0,0,.926.992Zm29.665-17.1c.753,0,1.318-.342,1.318-.548,0-.068-.1-.12-.325-.12a9.431,9.431,0,0,1-1.507-.154c-.72-.12-1.268-.394-1.474-.394-.068,0-.1.033-.1.085,0,.445.821,1.13,2.089,1.13ZM96.9,201.537a7.426,7.426,0,0,0,2.431-.532.932.932,0,0,1,.444-.119c.6,0,.446.685.995.685.428,0,.975-.359,1.3-.359.512,0,1.249,1.609,1.249,2.362,0,.873-1.317,1.4-2.876,1.4a3.653,3.653,0,0,1-3.646-3.269.179.179,0,0,1,.1-.171ZM71.32,227.265a2.493,2.493,0,0,0-1.472,2.432,4.772,4.772,0,0,0,4.759,4.262,2.786,2.786,0,0,0,3.115-2.894c0-2.584-1.592-4.4-3.662-4.4A2.065,2.065,0,0,0,71.92,228.7a2.833,2.833,0,0,0,2.894,2.824,1.443,1.443,0,0,0,1.523-1.473,1.9,1.9,0,0,0-1.729-1.831.5.5,0,0,0-.531.531c0,.411.565.822,1.267.822a.9.9,0,0,0,.377-.069.411.411,0,0,1,.051.206c0,.393-.376.632-.958.632a1.674,1.674,0,0,1-1.712-1.677c0-.616.53-1.061,1.3-1.061a2.546,2.546,0,0,1,2.43,2.7A1.771,1.771,0,0,1,74.8,232.23c-2.74,0-4.074-2.465-3.476-4.965Zm-1.711-18.607a1.629,1.629,0,0,0-1.216,1.437,1.008,1.008,0,0,0,1.078,1.011,1.118,1.118,0,0,0,.668-.171,1.993,1.993,0,0,1-.651-1.489,2.29,2.29,0,0,1,.12-.788Zm-4.195.24a1.3,1.3,0,0,0-.017.256c0,.8.429,1.25.994,1.25a1.845,1.845,0,0,0,1.369-.821,3.686,3.686,0,0,1-.616.05,2.053,2.053,0,0,1-1.729-.735Zm-.6,1.523c0,1.3.393,1.917,1.1,1.917a3.836,3.836,0,0,0,2.157-1.147,7.56,7.56,0,0,1-1.644.257,1.8,1.8,0,0,1-1.609-1.027ZM90.869,237.3a7.9,7.9,0,0,0,1.028-.068c.256,0,.273.155.273.257,0,.377-.839.839-2.328.839a1.508,1.508,0,0,1-1.557-.976,6.758,6.758,0,0,1-3.44,1.044c-3.51,0-4.4-1.523-5.5-2.021-.839-.377-2.123.359-3.92-1.644a4.314,4.314,0,0,0,.821.068c1.574,0,2.414-.769,2.414-2a4.306,4.306,0,0,0-.035-.48,3.4,3.4,0,0,1,1.831,2.464c.035.172.737.325,1.182.325a1.392,1.392,0,0,0,1.523-1.266,3.845,3.845,0,0,0,3.731-2.928,4.067,4.067,0,0,1,1.78,1.25,3.07,3.07,0,0,1,1.027-.154,6.585,6.585,0,0,1,1.9.325c.033-.223.068-.5.411-.5.513,0,.377.565.548.891.085.171.513.274.513.616a.437.437,0,0,1-.445.445.782.782,0,0,1-.206-.033c-.342.12-.359,2.584-1.8,2.584a2.881,2.881,0,0,1-2.464-1.969.733.733,0,0,0-.616-.53c-.274,0-.428.053-.754.411a5.945,5.945,0,0,1-4.363,1.883c-.582,0-1.044-.05-1.165-.05-.067,0-.067.017-.067.033,0,.12.581.582,1.849.582,3.011,0,3.747-1.695,4.227-1.695a.4.4,0,0,1,.394.274,3.349,3.349,0,0,0,3.184,2.02ZM81.146,202.89c1.129,0,1.644.975,1.644,2.071,0,.479-.137,1.181-.359,1.181s-.19-.394-.223-.753c-.035-.461-.12-.564-.274-.564-.291,0-.479.685-.479,1.317,0,.394.067.839.377.839a.626.626,0,0,0,.428-.188,1.531,1.531,0,0,1-1.472,1.472c-1.507,0-2.071-1.764-2.243-2.79a4.152,4.152,0,0,1-3.252,1.66,1.926,1.926,0,0,1-2.036-2c0-.291.1-1.044.461-1.044.429,0,.051,1.4.891,1.4.206,0,.582-.172.788-.736a3.182,3.182,0,0,0,.188-1.01c0-.463-.1-.753-.445-.753a1.347,1.347,0,0,0-.771.342,2.58,2.58,0,0,1,2.5-1.866c1.352,0,2.072,1.2,2.072,2.534a3.338,3.338,0,0,1-.052.581,2.98,2.98,0,0,1,2.259-1.694Zm-4.3-10.2c0-.1-.513-.206-1.216-.206-1.112,0-.958.926-1.814.926-.891,0-.668-.959-1.8-.959-.686,0-1.318.12-1.318.273,0,.206.8.12.8.686,0,.6-1.729.77-1.729,1.129,0,.12.137.172.308.172.377,0,.976-.172,1.4-.172.241,0,.463.052.463.274,0,.429-.924,1.2-.924,1.541,0,.1.086.137.172.137.342,0,.924-.874,1.471-.874.908,0,.309,1.936.8,1.936.514,0,.291-1.9,1.027-1.9.6,0,1.046,1.318,1.456,1.318a.2.2,0,0,0,.188-.206c0-.359-.514-1.1-.514-1.575,0-.291.206-.428.48-.428.394,0,.925.24,1.216.24.1,0,.206-.034.206-.155,0-.411-1.524-.855-1.524-1.387s.838-.53.838-.77Zm24.394,33.7c-.359,0-2.346,2.655-3.63,2.655-.308,0-.565-.582-.565-1.027,0-.24.155-.412.7-.531,2.944-.669,2.293-2.876,4.809-2.876a2.871,2.871,0,0,1,2.929,3.064c0,2.258-3.218,5.067-3.7,5.067-.394,0-.822-.566-.822-.943,0-.12.052-.274.394-.411a4,4,0,0,0,2.585-2.927.3.3,0,0,0-.308-.342c-.292,0-1.539,2.841-2.927,2.841-.96,0-1.935-.873-1.935-1.282,0-.686,2.773-1.953,2.773-2.912,0-.359-.171-.377-.307-.377Zm1.848-1.06c-.24,0-.5.19-.5.65a1.087,1.087,0,0,0,.617.942,1.062,1.062,0,0,0,.5.137c.5,0,.89-.137.89-.548,0-.53-.769-1.18-1.506-1.18Zm-22.218-30.9c0,.308,1.078.976,1.574.976.291,0,.377-.394.377-.805,0-.512-.223-.529-.668-.529-.564,0-1.283.154-1.283.359Zm1.78,3.39c0-1.028-2.807-2.928-2.807-3.7a.165.165,0,0,1,.016-.086c.206-.564,2.533-.959,2.533-1.421,0-.223-.411-.223-.616-.223-1.592,0-3.92.582-3.92,1.148,0,.582,2.088,2,2.088,2.706,0,.187-.119.256-.307.256-.582,0-1.85-.7-2.448-.7-.275,0-.377.187-.377.462,0,.821.974,2.38.974,2.841,0,.051-.017.12-.085.12-.308,0-1.763-1.712-2.276-1.712-.189,0-.206.256-.206.634v.582c0,.393-.017.633-.206.633-.446,0-.651-1.25-1.078-1.25-.446,0-.53,2.227-.958,2.227-.5,0-.069-2.449-.549-2.449-.53,0-1.13,1.627-1.505,1.627-.137,0-.172-.137-.172-.257,0-.5.291-1.3.291-1.78,0-.24-.068-.377-.274-.377-.531,0-1.694.856-2.14.856-.068,0-.155-.034-.155-.1,0-.411,1.866-1.711,1.866-2.293,0-.565-2.568-.189-2.568-.839,0-.547,1.832-1.113,1.832-1.678,0-.5-2.175-.718-3.012-.718-1.011,0-1.558.12-1.558.41,0,.446,2.293.582,2.293.977,0,.377-2.38,1.386-2.38,1.969,0,.513,3.356.033,3.356.565,0,.581-2.928,3.1-2.928,3.936,0,.189.137.274.325.274.891,0,3.2-1.694,3.835-1.694.223,0,.24.272.24.512,0,.445-.154,1.13-.154,1.627,0,.393.1.667.445.667.634,0,1.216-1.078,1.643-1.078.548,0,.223,3.166,1.045,3.166.7,0,.992-3.423,1.438-3.423s.8.992,1.216.992c.512,0,.273-1.729.821-1.729.6,0,2.311,2.054,3.081,2.054.24,0,.326-.189.326-.428,0-.907-1.267-2.961-1.267-3.612,0-.172.051-.223.239-.223.668,0,2.62.925,3.543.925.308,0,.5-.171.5-.394Zm23.367,19.7a10.262,10.262,0,0,1,1.178-2.38c-.564-.29-2.052-.907-2.052-1.917a2.648,2.648,0,0,1,1.779-2.1c.137,0,.172.12.172.342,0,.616-.292,1.609-.292,2.14,0,.478.308.94.582.94.291,0,1.1-1.026,1.1-2.036a2.308,2.308,0,0,0-2.088-2.363,10,10,0,0,1-3.272.753c-3.68,0-4.518-3.646-4.518-5.238,0-.068.016-.086.033-.086a2.617,2.617,0,0,0,1.61.446c.6,0,1.148-.154,2.021-.154,2.053,0,2.961,1.421,4.229,3.236.768.479,2.6,1.249,2.6,3.423,0,1.916-2.038,2.978-2.533,5.032.786-.085,1.248-1.49,2.054-1.49.411,0,.6.327.6.839a3.724,3.724,0,0,1-1.25,2.585,1.085,1.085,0,0,0,.018-.256c0-.48-.19-1.165-.737-1.165-.855,0-1.129.924-1.609,1.694a8.164,8.164,0,0,0-2.362-4.279c-1.215-.977-3.3-.446-3.3-2.225,0-.48.307-1.164.307-1.711a.808.808,0,0,0-.137-.5c1.644.616,1.061,1.711,2.072,2.841.632.719,2.378,1.4,3.389,4.364a3.187,3.187,0,0,0,.033-.46c0-2.534-3.354-5.016-3.644-6.043,1.95.223,2.292.7,3.217,3.268a10.731,10.731,0,0,1,.805,2.5ZM69.25,203.574a3.39,3.39,0,0,0,.154-.992c0-.822-.376-2.071-1.541-2.071a1.139,1.139,0,0,0-1.146,1.164c0,1.352,1.352,1.9,2.533,1.9Zm-1.456,4.314a1.411,1.411,0,0,1-1.18-1.334c0-.343.257-.772.443-.772.069,0,.1.052.12.172a1.946,1.946,0,0,0,1.165,1.557c.051.034.086.052.086.085,0,.12-.326.291-.634.291Zm2.02-1.608c0,.239-.137.548-.411.548-.6,0-1.078-.909-1.078-1.422,0-.324.189-.359.446-.359a.416.416,0,0,1,.257.068c.153.085.153.428.341.684.1.172.446.36.446.481Zm-.6-1.8a2.52,2.52,0,0,0-.376-.017,3.569,3.569,0,0,0-1.986.548c-1.507.976-1.267,2.515-1.507,2.91a.343.343,0,0,0-.051.189.364.364,0,0,0,.325.324c.137,0,.223-.033.291-.033.411,0,.873.29,1.54.29a3.267,3.267,0,0,0,1.439-.411,3.574,3.574,0,0,0,1.712-2.4c0-.325-.257-.274-.48-.582-.24-.359-.12-.5-.274-.7a1.537,1.537,0,0,0-.634-.12Zm1.815,2.756a3.252,3.252,0,0,0-.771,1.97A1.537,1.537,0,0,0,71.7,210.9a1.3,1.3,0,0,0,1.232-1.454,2.529,2.529,0,0,0-1.9-2.209Zm-3.664-3.286a2.048,2.048,0,0,1-1.113.377,1.288,1.288,0,0,1-1.318-1.318,1.441,1.441,0,0,1,.908-1.352,1.667,1.667,0,0,0-.017.291,1.994,1.994,0,0,0,1.54,2Zm30.453,9.961a.659.659,0,0,1,1.317,0,.659.659,0,1,1-1.317,0Zm.444,19.688c.085,0,.188.05.188.359a1.5,1.5,0,0,1-.786,1.266,3.319,3.319,0,0,1-1.867.547,4.044,4.044,0,0,0,.24-1.249,3.288,3.288,0,0,0-.034-.393h.223a3.9,3.9,0,0,0,2.036-.53Zm.137-1.7a.63.63,0,0,0,.171-.5v-.394c0-.5-.751-.787-1.779-.787-1.25,0-1.919.564-1.919.805v.787c0,.325.754.651,1.679.651A2.864,2.864,0,0,0,98.4,231.9Zm.891.189a5.049,5.049,0,0,1-3.217,1.113,4.228,4.228,0,0,1-1.473-.291c-.171,0-.359.172-.547.394a3.829,3.829,0,0,0-.942,2.344,1.4,1.4,0,0,0,1.523,1.371c3.2,0,5.6-2,5.6-3.629,0-.926-.548-1.3-.942-1.3Zm.6-14.4c0,.428.138.924.566.924.359,0,.669-.547.669-1.146,0-.686-.12-1.217-.12-1.491,0-.119.051-.171.12-.171.256.018.5.72.77.72.308,0,.769-.565.957-.565.051,0,.068.068.068.085,0,.257-.394.822-.394,1.044,0,.189.993.222.993.394,0,.256-1.045.256-1.539.479-.48.2-.771.462-.771.8s.342.411.822.411a6.791,6.791,0,0,0,2.207-.616.081.081,0,0,1,.085.085c0,.172-.581.737-.581.994,0,.291,1.062.633,1.045.8-.018.051-.085.067-.206.067-.188,0-.479-.05-.7-.05-.137,0-.258.016-.308.085-.121.137.034,1.045-.206,1.045-.223,0-.805-2.02-2.122-2.02-.189,0-.326.155-.326.412a2.581,2.581,0,0,0,1.3,1.849c.289.189.769.377.769.479,0,.2-1.095.018-1.095.359,0,.309.137.772.137,1.045,0,.086-.017.188-.12.188-.2,0-.7-.941-.942-.941-.2,0-.65.564-.838.564a.1.1,0,0,1-.085-.1c0-.394.634-1.283.634-2.157,0-.411-.051-1.3-.548-1.3-.412,0-.873.65-1.079,1.3-.12.377-.033,1.831-.308,1.831-.256,0-.189-.975-.531-.975-.254,0-.8.462-.991.462-.034,0-.067-.018-.067-.052,0-.2.5-.872.5-1.009,0-.257-1.13-.291-1.13-.5,0-.12.446-.206.856-.274.873-.155,2.157-.786,2.157-1.678,0-.992-.96-1.42-1.591-1.831-.326-.206-.686-.377-.686-.514s.412-.137.582-.137c.255,0,.512-.017.512-.222,0-.155-.035-.462-.035-.7,0-.171.017-.307.086-.307.257,0,.617.838.788.838.273,0,.651-.684.908-.684.085,0,.12.051.12.206,0,.633-.326,1.352-.326,1.968Zm-8.164-5.015c.189,1.454,2.14.718,2.14,2.48,0,.258-.069.634-.069.959,0,.377.034.7.325.7s.36-.2.36-.48-.068-.615-.068-.8a.663.663,0,0,1,.684-.737c.651,0,1.148.668,2.123.668-.223,1.1-2.482.8-2.482,2,0,.6.6.735.993.735.359,0,.478-.052.478-.359,0-.172-.034-.359-.034-.479a.135.135,0,0,1,.137-.137c.377,0,2.225,1.4,2.225,1.831,0,.394-1.951.787-2.516.787a.183.183,0,0,1-.206-.188c0-.12.291-.48.291-.686,0-.154-.256-.257-.941-.257-.325,0-.565.035-.565.292,0,.462.753,1.027.753,1.455,0,.342-.2.547-.753.547-.462,0-1.165-.359-1.165-.958,0-.48.5-.959.5-1.25a.242.242,0,0,0-.275-.223c-.634,0-.8,1.677-3.047,1.866a1.719,1.719,0,0,0,.669-1.421c0-.36-.086-.651-.086-1.044,0-.513.24-.771.582-.771.634,0,.941.89,1.352.89a.494.494,0,0,0,.462-.512c0-1.3-2.5-1.113-2.5-2.945a4.24,4.24,0,0,1,.634-1.967Zm3.252,11.126a.41.41,0,0,0,.411.428.472.472,0,0,0,.446-.514c0-.359-.325-.856-.634-.856-.137,0-.085.206-.12.429-.016.171-.1.377-.1.514Zm-.89-2.277a3.165,3.165,0,0,1,2.774,2.962,1.549,1.549,0,0,1-1.508,1.676,1.452,1.452,0,0,1-1.507-1.557c0-.719.566-1.473.566-2.21a1.323,1.323,0,0,0-.325-.872Zm-2.276,2.911a.694.694,0,0,1,.223.513c0,.257-.12.531-.12.821a.752.752,0,0,0,.754.77.8.8,0,0,0,.8-.821,1.5,1.5,0,0,0-1.66-1.282Zm5.665-1.1a1.016,1.016,0,0,1,.172.548c0,.48-.325.925-.325,1.421A1.022,1.022,0,0,0,98.4,226.34a1.184,1.184,0,0,0,1.182-1.232c0-.907-.821-1.678-2.106-1.763Zm-5.255-.908c.787.1.976.377.976.6,0,.378-.342.5-.668.5-.239,0-.513-.051-.8-.051a1.3,1.3,0,0,0-1.061.446.585.585,0,0,1,.547.531c0,.992-2.756.171-2.756,2.721,0,1.353,1.4,2.824,3.526,2.824,1.1,0,1.8-.358,1.8-.769,0-.324-.581-.1-.581-.376,0-.121.206-.343.206-.531,0-.085-.068-.24-.206-.24a6.814,6.814,0,0,1-2.071.5c-.924,0-1.831-.53-1.831-1.25,0-.154.068-.24.171-.24s.24.069.359.069c.1,0,.12-.069.12-.257s0-.72.326-.72.941,1.2,3.3,1.2a5.369,5.369,0,0,0,2.876-.668,4.448,4.448,0,0,1-4.57,4.366,4.83,4.83,0,0,1-4.913-4.931,5.039,5.039,0,0,1,5.067-5c.751,0,1.386.257,1.386.581,0,.446-1.113.172-1.2.7ZM79.83,204.91c0-.292-.069-.359-.137-.359-.171,0-.36.2-.634.666.034.617.137.891.307.891.189,0,.464-.6.464-1.2Zm-2.346.7c.189,0,.428-.206.873-.7a4.382,4.382,0,0,0,.034-.685c0-.343-.137-.72-.343-.72-.512,0-.77,1.37-.77,1.729,0,.2.1.377.206.377Zm2.79,1.523c.429,0,.908-1.643.908-2.67,0-.223-.035-.462-.137-.462-.359,0-.96,1.693-.96,2.62,0,.359.085.512.189.512Zm-4.194-.941c.582,0,1.25-3.15,1.25-3.68,0-.137-.052-.24-.171-.24-.531,0-1.268,3-1.268,3.663,0,.12.034.257.189.257Zm1.866,1.3c-.736,0-.769.891-.769,2.688-.548-1.181-1.456-2.448-2.517-2.448-.719,0-.993.479-.993,1.318a3.191,3.191,0,0,0,.051.581.65.65,0,0,1,.7-.41,3.126,3.126,0,0,1,2.208,1.335,11.417,11.417,0,0,0-1.866-.24,2.154,2.154,0,0,0-.908.155,2.278,2.278,0,0,0-1.165,2.072,3.372,3.372,0,0,0,.052.564,3.685,3.685,0,0,1,3.218-1.933,3.156,3.156,0,0,1,.479.034,2.783,2.783,0,0,0-.685,1.882c-.017.273-.12.291-.307.291,0,.564.444,1.4.444,1.831a.361.361,0,0,1-.171.325c0,.752.752,1.3.752,1.779a.406.406,0,0,1-.085.275c.051.307.873.838.976,1.06.172.36.291.394.377.394.29,0,.753-.342.753-.65a.406.406,0,0,0-.154-.274,2.514,2.514,0,0,1-.634-1.1.335.335,0,0,1-.324-.24c-.069-.223-.1-1.027-.24-1.42-.224-.052-.325-.137-.325-.6,0-.223.137-1.1.137-1.4a.243.243,0,0,1-.24-.273c0-.546.548-.975.7-1.677a2.519,2.519,0,0,1,1.215,2.1,4.5,4.5,0,0,1-.12.976c.72-.359,1.8-.89,1.8-1.968,0-.634-.291-1.335-2.225-1.609a6.048,6.048,0,0,1,1.986-.342c1.1,0,1.729.342,1.866,1.112a2.136,2.136,0,0,0,.394-1.095,1.446,1.446,0,0,0-1.592-1.386,5.466,5.466,0,0,0-2.962,1.214c.446-.923.754-1.471,1.3-1.471a1.317,1.317,0,0,1,.256.033c-.2-.754-.975-1.49-1.387-1.49ZM67.024,196.829a3.277,3.277,0,0,1-1.763,1.49c-.172,0-.222-.207-.222-.394a1.525,1.525,0,0,1,.342-.977,1.923,1.923,0,0,1,1.13-.307c.24,0,.513.05.513.188Zm39.765,23.006c.855,0,1.54,1.113,1.54,2.414a5.375,5.375,0,0,1-1.813,3.919c-.017-2.31-2.843-1.574-2.843-3.252a1.135,1.135,0,0,1,1.13-1.2,1.733,1.733,0,0,1,1.284.463,1.515,1.515,0,0,1-.463-1.1,1.164,1.164,0,0,1,1.164-1.25Zm-12.7-17.511a1.287,1.287,0,0,0-.891-.342,1.385,1.385,0,0,0-1.37,1.01,1.628,1.628,0,0,1-.12-.582,1.654,1.654,0,0,1,1.764-1.677,3,3,0,0,1,1.678.581c.171,0,.342-.171.479-.171.188,0,.188.291.188.5a2.8,2.8,0,0,1-1.078,2.293,1.741,1.741,0,0,0-.856-.821.27.27,0,0,1-.171-.256.689.689,0,0,1,.377-.531ZM91.5,203.574a1.82,1.82,0,0,0,1.318.616c.188,0,.411-.051.531-.051.154,0,.256.068.256.189a1.076,1.076,0,0,1-.377.668,1.716,1.716,0,0,0,.668.12,2.015,2.015,0,0,0,2.088-2.157,2.3,2.3,0,0,1,.325,1.095,2.455,2.455,0,0,1-2.636,2.585,3.673,3.673,0,0,1-1.335-.274c-.325,0-.307.651-.53.634-.4-.068-.754-.942-.754-1.866a2.72,2.72,0,0,1,.445-1.558Zm-11.9-4.98c0,.6,2.139,3.525,2.55,3.525.342,0,.6-.6.6-1.113a.692.692,0,0,0-.1-.376,10.063,10.063,0,0,0-2.961-2.14.1.1,0,0,0-.085.1Zm24.7-1.405c0-1.214-2.909-1.522-2.909-1.8,0-.223,1.626-.6,2.465-.616-1.285-1.643-3.116-1.472-3.116-1.762a5.277,5.277,0,0,1,2.637-.515c1.06,0,2.054.24,2.054,1.045,0,.446-.36.908-.36,1.592a.633.633,0,0,0,.685.7c.532,0,.651-.565.651-1.165,0-.5-.086-.873-.086-1.112a1.14,1.14,0,0,1,1.2-1.2c.582,0,.719.256,1.575.256a1.3,1.3,0,0,0-.634,1.01,18.622,18.622,0,0,1,.463,2.688c0,2.7-2.533,3.664-5.633,3.664a17.581,17.581,0,0,1-2.653-.207c-.137-.017-.172-.051-.172-.136,0-.223,1.216-.343,1.216-1.439a8.524,8.524,0,0,0-.137-.993.136.136,0,0,1,.137-.137c.257,0,.769.994,1.728.994a.815.815,0,0,0,.89-.874Zm2.892-1.729c0,1.525-1.11,2.689-3.114,3.014.222.017.429.017.634.017,2.344,0,3.2-1.062,3.2-1.951a1.092,1.092,0,0,0-.721-1.08Zm-1.624,13.765c0-.359-.908-.394-.993-1.4-.017-.154-.068-.428-.258-.428-.307,0-.068.942-.411.942-.788,0-1.044-1.54-1.335-1.54-.068,0-.154.052-.154.257,0,.188.034.308.034.53s-.052.377-.255.377c-.463,0-.873-1.078-1.268-1.078a.154.154,0,0,0-.17.137c0,.206.342.581.342.769,0,.412-1.114.189-1.114.532,0,.155.155.206.36.206.359,0,.924-.155,1.215-.155.172,0,.429.035.429.257,0,.24-.617.548-.617.771a.171.171,0,0,0,.188.153c.463,0,1.283-.8,1.865-.8.1,0,.361.05.361.206,0,.222-.583.615-.583.94a.173.173,0,0,0,.155.189c.308,0,.719-.8,1.3-.8.223,0,.548.086.719.086.137,0,.189-.086.189-.137ZM93.317,196.163c0-.189-.667-.549-.667-.754,0-.034.034-.051.085-.051.187,0,.513.068.77.068.222,0,.257-.958.429-.958.12,0,.325.907.514.907.222,0,.631-.257.8-.257.034,0,.068.017.068.051,0,.12-.429.582-.429.719,0,.155.96.342.96.481,0,.171-.977.154-.977.307,0,.12.36.6.36.753a.046.046,0,0,1-.052.052c-.137,0-.667-.24-.821-.24-.189,0-.5.7-.651.7-.052,0-.085-.069-.085-.155l-.035-.685c0-.069-.033-.137-.12-.137-.206,0-.6-.018-.719-.018-.085,0-.12-.017-.12-.051,0-.137.684-.616.684-.735Zm3.338,3.252c-1.2,0-1.985-.6-1.985-.908a.239.239,0,0,1,.239-.256c.377,0,1.2.581,1.473.581.067,0,.12-.034.12-.137,0-.307-.292-.821-.292-1.078,0-.067.052-.12.155-.12.462,0,1.147.189,1.506.189.12,0,.155-.069.155-.137,0-.378-1.113-1.113-1.113-1.336,0-.2,1.386-.513,1.386-.838,0-.342-1.882-.1-1.882-.429,0-.239.359-.65.359-.838,0-.086-.067-.12-.188-.12a13.555,13.555,0,0,1-1.318.324c-.172,0-.377-.033-.377-.274,0-.393.669-.822,1.714-.822,1.693,0,2.7,1.165,2.7,3.116,0,2.464-1.728,3.081-2.653,3.081ZM85.067,229.029a.789.789,0,0,1-.189.5,1.263,1.263,0,0,0-.957-.514c-1.765,0-1.1,2.55-2.98,2.55a8.9,8.9,0,0,1-1.146-.1c-.121,0-.189.051-.189.154,0,.445.633,1.542,2.395,1.542s3.458-1.079,3.458-2.415a1.8,1.8,0,0,0-.154-.7.5.5,0,0,1,.393-.172c.274,0,.429.309.686.309a.468.468,0,0,0,.479-.478.517.517,0,0,0-.326-.48.588.588,0,0,0,.241-.462.545.545,0,0,0-.547-.565.486.486,0,0,0-.377.172c-.034-.308-.2-.6-.53-.6a.441.441,0,0,0-.445.48c0,.273.189.5.189.787Zm-4.606.651c-.513,0-1.283-.548-1.283-.856a.416.416,0,0,1,.429-.394c.427,0,1.2.531,1.2.977,0,.12-.086.274-.343.274Zm-4.775-3.836c1.37.342,2.054,1.079,2.191,1.952a3.8,3.8,0,0,0,.634,1.867,2.971,2.971,0,0,0,2,.905c.616,0,1.113-.2,1.113-.768a2.35,2.35,0,0,0-2.072-2c-.12,0-.274.017-.445.017a.82.82,0,0,1-.514-.154c-.275-.239-.359-1.523-.873-2.293a2.151,2.151,0,0,0-2.019-1.1c-.6,0-1.266.325-1.266.805,0,.291.154.5,1.249.768Zm8.593-2.088c0-.77-1.592-.787-1.592-1.951a2.67,2.67,0,0,1,.565-1.319,1.857,1.857,0,0,0,1.283,1.644,2.193,2.193,0,0,1,1.73,2.328,3.5,3.5,0,0,1-3.852,3.458,3.9,3.9,0,0,1-3.817-3.664c0-.462.12-.976.412-.976.256,0,.342.2.547.411a3.563,3.563,0,0,0,2.824.976c1.1,0,1.9-.445,1.9-.908Zm.068,1.234c-.6.239-.821.222-.821.82,0,.223-.051.514-.051.669,0,.2.034.325.273.325a2.191,2.191,0,0,0,1.592-1.934c0-.24-.137-.342-.29-.342-.137,0-.291.274-.7.463Zm-5.46-8.647c0-1.095,2.6-1.677,2.6-3.029a2.239,2.239,0,0,0-.24-.907,2.755,2.755,0,0,1,1.574,2.019c0,1.183-1.232,1.729-1.232,2.466,0,.856,1.318.993,1.318,2.053,0,.873-1.25,1.883-1.25,3.013a1.709,1.709,0,0,0,1.558,1.712,3.933,3.933,0,0,1-.873.12,3.491,3.491,0,0,1-3.509-3.116,2.923,2.923,0,0,1,.908-2.106,2.449,2.449,0,0,0,1.266.686c.274,0,.394-.137.394-.342,0-.634-2.517-1.216-2.517-2.569Z" fill="#fff"/>
    <path id="Path_56" data-name="Path 56" d="M164.984,221.728a3.5,3.5,0,0,0,3.052-1.868,18.679,18.679,0,0,1-1.053-4.835c-.3-4.843,1.569-9.4,3.612-9.524,1.5-.09,2.7,1.328,2.834,3.619.369,6.038-1.644,8.559-2.647,10.728a3.567,3.567,0,0,0,2.947,2.28,1.93,1.93,0,0,0,1.251-.452,4.939,4.939,0,0,1-.2-1.448c0-3.5,2.252-6.447,4.2-6.447,1.551,0,2.446,2.048,2.446,3.4,0,1.6-1.348,2.9-3.346,4.146a2.4,2.4,0,0,0,1.551.6c2.848,0,4.345-3.447,5.447-6.6.2-.6.552-1.448,1.247-1.448,1.2,0,1.7,7.9,3.7,7.9.852,0,1.55-1.749,1.55-3.1,0-1-.35-1.1-.35-2.552,0-1.6.85-2.948,2-2.948.7,0,.949.7.949,1.549,0,3.2-2.3,9.148-5.7,9.148-2.553,0-2.353-4.4-3.249-4.4-1,0-2.4,4.453-7.35,4.453a3.167,3.167,0,0,1-2.347-1.2,5.744,5.744,0,0,1-3.351,1.154c-1.848,0-2.648-1.9-3.4-1.9-.9,0-1.9,1.952-4.9,1.952-2.4,0-2.8-3.2-3.648-3.2-.75,0-1.9,3.2-3.148,3.2-2.1,0-2.55-5.547-4.4-5.547-1.451,0-6.029,5.633-7.273,5.505-.5-.054-.71-.426-.657-.927a34.776,34.776,0,0,1,.908-3.42c.4-1.516.775-3.186.982-3.717a1.329,1.329,0,0,1,1.206-.875c.225.021.292.439.362.784.251,1.24.605,2.5,1,2.5.7,0,3.021-4.449,4.368-4.449,1.65,0,1.849,7,4.1,7,.751,0,1.3-.9,1.8-2,.051-1.852.55-4.5,2.049-4.5,1.052,0,1.551,2.346.8,4.4,0,2.445,1.6,3.046,2.649,3.046Zm37.282-4.7a3.114,3.114,0,0,0-2.847-3c-2.25,0-4.445,2.45-4.445,5.847,0,3.047,1.895,4.051,3.793,4.051,3.3,0,5.3-2.7,6.348-4.951.5,1.5.8,4.951,2.049,4.951.5,0,.85-.251,1.451-1.6,1.5-3.349,2.946-7.2,4.947-7.2.747,0,.3,1.35,2.1,1.35a1.459,1.459,0,0,0,1.448-1.5c0-1.149-1.048-2.048-2.649-2.048-4.694,0-5.693,7.048-6.446,7.048-1.249,0-.85-5.646-1.749-5.646-.8,0-1.2.95-1.3,1.4-.651,2.6-2.5,6.349-5.3,6.349-.649,0-1.8-.252-1.8-.9,0-.7,4.4-.8,4.4-4.147Zm-30.458-6.561c-.085-1.4-.424-2.025-1.172-1.976-1,.061-1.455,3.19-1.254,6.481.131,2.149.45,2.477.748,2.458.552-.032,1.871-3.87,1.679-6.964Zm-8.126-2.933a1.453,1.453,0,0,0-1.546-1.351,1.981,1.981,0,0,0-1.748,2.248,1.47,1.47,0,0,0,1.5,1.5,2.116,2.116,0,0,0,1.794-2.4Zm15.546,10.193c0-.847-.453-1.551-1-1.551-.453,0-1.5.5-1.5,2.1a3.112,3.112,0,0,0,.65,2.1,2.589,2.589,0,0,0,1.849-2.65Zm19.537-1.7c1.051,0,1.352,1.246,1.1,2a3.205,3.205,0,0,1-2.55,1.848c-.3-.751-.451-3.845,1.447-3.845Zm-68.737.8a21.038,21.038,0,0,1,.9-7c.448-1.547.85-2.1,2.247-2.4,1.1-.2,1,.947.751,2.3a26.614,26.614,0,0,0-.6,7.847c.2,3.6,1.849,5,3.647,5,2.7.051,3.9-2.2,4.4-5.447a9.491,9.491,0,0,0-.153-4.647,20.031,20.031,0,0,1-.7-2.2c-.2-1.9.7-2.8,1.451-3.048.9-.251,1.252.2,1.6,1.25a21.81,21.81,0,0,1,.351,6.691c-.2,4.1-2.249,9.05-7.346,8.947-4.4-.1-6.345-2.947-6.547-7.293Z" transform="translate(-9.531 -1.927)" fill="#fff"/>
  </g>
</svg>
