<svg xmlns="http://www.w3.org/2000/svg" width="95.933" height="80.902" viewBox="0 0 95.933 80.902">
  <g id="CPG_-_Icon" data-name="CPG - Icon" transform="translate(-78 0)">
    <path id="Path_4229" data-name="Path 4229" d="M69.232,69.6C80.5,54.878,83.01,23.564,74.007,10.882,68.84,3.758,60.777,0,50.364,0,33.3,0,13.884,10.647,5.116,24.738c-6.185,9.864-6.732,20.354-1.8,30.375,8.768,17.223,24.034,27.87,39.848,27.87C53.417,82.983,62.656,78.286,69.232,69.6Z" transform="translate(162.357 1.448) rotate(91)" fill="#f4a114"/>
    <g id="Group_1136" data-name="Group 1136" transform="translate(-43.83 -3124.568)">
      <g id="Group_1135" data-name="Group 1135">
        <g id="Group_1134" data-name="Group 1134">
          <g id="Group_1132" data-name="Group 1132">
            <line id="Line_256" data-name="Line 256" x1="7.821" transform="translate(185.171 3145.793)" fill="none" stroke="#424242" stroke-linecap="round" stroke-linejoin="round" stroke-width="1.864"/>
            <path id="Path_4863" data-name="Path 4863" d="M180.363,3194.392a3.6,3.6,0,0,0,2.553,1.058H195.25a3.611,3.611,0,0,0,3.611-3.611v-21.15a14.738,14.738,0,0,0-2.227-7.786h0a24.088,24.088,0,0,1-3.639-12.729v-11.606h-7.824v11.6a24.087,24.087,0,0,1-3.639,12.729h0a15.785,15.785,0,0,0-2.122,5.647" fill="none" stroke="#424242" stroke-linecap="round" stroke-linejoin="round" stroke-width="1.864"/>
          </g>
          <g id="Group_1133" data-name="Group 1133">
            <path id="Rectangle_240" data-name="Rectangle 240" d="M161.239,3170.1h19.245v23.272a2.313,2.313,0,0,1-2.312,2.313H161.239V3170.1Z" fill="none" stroke="#424242" stroke-linecap="round" stroke-linejoin="round" stroke-width="1.864"/>
            <path id="Path_4864" data-name="Path 4864" d="M175.066,3162.271h-18.04l4.215,7.827h19.246Z" fill="none" stroke="#424242" stroke-linecap="round" stroke-linejoin="round" stroke-width="1.864"/>
            <path id="Path_4865" data-name="Path 4865" d="M155.093,3195.686h6.146V3170.1l-4.212-7.827-4.212,7.827v23.31A2.278,2.278,0,0,0,155.093,3195.686Z" fill="none" stroke="#424242" stroke-linecap="round" stroke-linejoin="round" stroke-width="1.864"/>
            <path id="Rectangle_241" data-name="Rectangle 241" d="M158.838,3155.661h14.416a1.811,1.811,0,0,1,1.813,1.809v4.8h-18.04v-4.8a1.811,1.811,0,0,1,1.811-1.811Z" fill="none" stroke="#424242" stroke-linecap="round" stroke-linejoin="round" stroke-width="1.864"/>
          </g>
        </g>
      </g>
      <path id="Path_4866" data-name="Path 4866" d="M134.831,3183.411h4.549l4.662,14.226a6.02,6.02,0,0,0,5.722,4.146h52.149a6.02,6.02,0,0,0,5.721-4.146l4.663-14.226h4.534" fill="none" stroke="#424242" stroke-linecap="round" stroke-linejoin="round" stroke-width="1.864"/>
    </g>
  </g>
</svg>
