<svg xmlns="http://www.w3.org/2000/svg" width="104.422" height="97.528" viewBox="0 0 104.422 97.528">
  <g id="F_B_Icon" data-name="F&amp;B Icon" transform="translate(-78 0)">
    <path id="Path_4229" data-name="Path 4229" d="M69.232,69.6C80.5,54.878,83.01,23.564,74.007,10.882,68.84,3.758,60.777,0,50.364,0,33.3,0,13.884,10.647,5.116,24.738c-6.185,9.864-6.732,20.354-1.8,30.375,8.768,17.223,24.034,27.87,39.848,27.87C53.417,82.983,62.656,78.286,69.232,69.6Z" transform="translate(162.357 1.448) rotate(91)" fill="#f4a114"/>
    <g id="Group_1047" data-name="Group 1047" transform="translate(-862.242 -2812.955)">
      <path id="Path_4743" data-name="Path 4743" d="M965.454,2890.628l14.245-9.218,12.151-5.865h16.34l-16.55,9.218,8.722,1.55,28.22-10.269-2.043,5.108a11.961,11.961,0,0,1-5.919,6.335l-15.572,7.751-20.36.384a5.4,5.4,0,0,0-3.285,1.193l-15.74,12.668Z" fill="none" stroke="#142737" stroke-linecap="round" stroke-linejoin="round" stroke-width="2"/>
      <path id="Rectangle_226" data-name="Rectangle 226" d="M962.242,2867.2h81.422a8.38,8.38,0,0,1-8.38,8.38H970.622a8.38,8.38,0,0,1-8.38-8.38Z" fill="none" stroke="#142737" stroke-linecap="round" stroke-linejoin="round" stroke-width="2"/>
      <path id="Path_4744" data-name="Path 4744" d="M967.689,2867.131a35.264,35.264,0,0,1,70.529,0S967.689,2867.339,967.689,2867.131Z" fill="none" stroke="#142737" stroke-linecap="round" stroke-linejoin="round" stroke-width="2"/>
      <path id="Path_4745" data-name="Path 4745" d="M1006.933,2832.041V2826.7a4.679,4.679,0,0,0-9.357-.137c0,.046,0,.092,0,.137v5.516" fill="none" stroke="#142737" stroke-linecap="round" stroke-linejoin="round" stroke-width="2"/>
    </g>
  </g>
</svg>
