<svg xmlns="http://www.w3.org/2000/svg" width="108.001" height="86.673" viewBox="0 0 108.001 86.673">
  <g id="Fuel_Retail_Icon" data-name="Fuel Retail Icon" transform="translate(-1093 -8194)">
    <path id="Path_4229" data-name="Path 4229" d="M69.232,69.6C80.5,54.878,83.01,23.564,74.007,10.882,68.84,3.758,60.777,0,50.364,0,33.3,0,13.884,10.647,5.116,24.738c-6.185,9.864-6.732,20.354-1.8,30.375,8.768,17.223,24.034,27.87,39.848,27.87C53.417,82.983,62.656,78.286,69.232,69.6Z" transform="translate(1177.357 8195.448) rotate(91)" fill="#f4a114"/>
    <g id="Group_1798" data-name="Group 1798" transform="translate(343.672 5369.045)">
      <g id="Rectangle_92" data-name="Rectangle 92">
        <path id="Path_5205" data-name="Path 5205" d="M785.865,2836.955h33.2a8.3,8.3,0,0,1,8.3,8.3v65.373h-49.8v-65.373A8.3,8.3,0,0,1,785.865,2836.955Z" fill="none" stroke="#424242" stroke-linecap="round" stroke-linejoin="round" stroke-width="2"/>
      </g>
      <path id="Path_4328" data-name="Path 4328" d="M815.136,2874.42a21.023,21.023,0,0,0-3.877-11.435,38.4,38.4,0,0,0-6.123-7.082c-.566-.507-1.131-1.007-1.722-1.469a1.865,1.865,0,0,0-2.088,0,32.6,32.6,0,0,0-4.714,4.329,26.981,26.981,0,0,0-6.405,11.039,17.3,17.3,0,0,0-.317,7.652c1.521,7.54,8.335,12.3,15.219,10.637a13.52,13.52,0,0,0,9.85-11.426,16.815,16.815,0,0,0,.173-2.232C815.159,2873.219,815.159,2875.658,815.136,2874.42Z" fill="none" stroke="#424242" stroke-linecap="round" stroke-linejoin="round" stroke-width="2"/>
      <path id="Path_4329" data-name="Path 4329" d="M774.329,2909.641h56.109" fill="none" stroke="#424242" stroke-linecap="round" stroke-linejoin="round" stroke-width="2"/>
      <path id="Path_4330" data-name="Path 4330" d="M842.96,2842.786l13.369,14.137v33.74H841.171v-21.2h-9.66" fill="none" stroke="#424242" stroke-linecap="round" stroke-linejoin="round" stroke-width="2"/>
      <path id="Path_4331" data-name="Path 4331" d="M850.679,2851.913v13.248H856" fill="none" stroke="#424242" stroke-linecap="round" stroke-linejoin="round" stroke-width="2"/>
    </g>
  </g>
</svg>
