<svg xmlns="http://www.w3.org/2000/svg" width="95.932" height="91.342" viewBox="0 0 95.932 91.342">
  <g id="Groups_Cong_-_Icon" data-name="Groups &amp; Cong - Icon" transform="translate(-78 0)">
    <path id="Path_4229" data-name="Path 4229" d="M69.232,69.6C80.5,54.878,83.01,23.564,74.007,10.882,68.84,3.758,60.777,0,50.364,0,33.3,0,13.884,10.647,5.116,24.738c-6.185,9.864-6.732,20.354-1.8,30.375,8.768,17.223,24.034,27.87,39.848,27.87C53.417,82.983,62.656,78.286,69.232,69.6Z" transform="translate(162.357 1.448) rotate(91)" fill="#f4a114"/>
    <g id="Group_1145" data-name="Group 1145" transform="translate(-28.971 -3035.56)">
      <line id="Line_260" data-name="Line 260" x2="82" transform="translate(119.971 3125.969)" fill="none" stroke="#424242" stroke-linecap="round" stroke-linejoin="round" stroke-width="1.864"/>
      <path id="Path_4880" data-name="Path 4880" d="M140.409,3077.22v-20.051h17.909v68.8" fill="none" stroke="#424242" stroke-linecap="round" stroke-linejoin="round" stroke-width="1.864"/>
      <path id="Path_4881" data-name="Path 4881" d="M123.966,3125.969v-48.534h19.242v48.535" fill="none" stroke="#424242" stroke-linecap="round" stroke-linejoin="round" stroke-width="1.864"/>
      <path id="Path_4882" data-name="Path 4882" d="M158.317,3125.969v-38.278h18.236v38.278" fill="none" stroke="#424242" stroke-linecap="round" stroke-linejoin="round" stroke-width="1.864"/>
      <path id="Path_4883" data-name="Path 4883" d="M170.071,3087.691V3072.34h27.9v53.629" fill="none" stroke="#424242" stroke-linecap="round" stroke-linejoin="round" stroke-width="1.864"/>
      <path id="Path_4884" data-name="Path 4884" d="M175.2,3072.34v-5.168H192.85v5.168" fill="none" stroke="#424242" stroke-linecap="round" stroke-linejoin="round" stroke-width="1.864"/>
      <path id="Path_4885" data-name="Path 4885" d="M126.766,3077.268v-4.924h13.643v4.953" fill="none" stroke="#424242" stroke-linecap="round" stroke-linejoin="round" stroke-width="1.864"/>
      <line id="Line_261" data-name="Line 261" y2="7.227" transform="translate(184.023 3059.48)" fill="none" stroke="#424242" stroke-linecap="round" stroke-linejoin="round" stroke-width="1.864"/>
      <line id="Line_262" data-name="Line 262" y2="7.227" transform="translate(149.363 3049.56)" fill="none" stroke="#424242" stroke-linecap="round" stroke-linejoin="round" stroke-width="1.864"/>
      <line id="Line_263" data-name="Line 263" y2="7.227" transform="translate(133.588 3065.113)" fill="none" stroke="#424242" stroke-linecap="round" stroke-linejoin="round" stroke-width="1.864"/>
      <path id="Path_4886" data-name="Path 4886" d="M130.831,3125.969v-7.682h5.514v7.682" fill="none" stroke="#424242" stroke-linecap="round" stroke-linejoin="round" stroke-width="1.864"/>
      <path id="Path_4887" data-name="Path 4887" d="M146.607,3125.969v-7.682h5.513v7.682" fill="none" stroke="#424242" stroke-linecap="round" stroke-linejoin="round" stroke-width="1.864"/>
      <path id="Path_4888" data-name="Path 4888" d="M164.68,3125.969v-7.682h5.514v7.682" fill="none" stroke="#424242" stroke-linecap="round" stroke-linejoin="round" stroke-width="1.864"/>
      <path id="Path_4889" data-name="Path 4889" d="M181.267,3125.969v-7.682h5.513v7.682" fill="none" stroke="#424242" stroke-linecap="round" stroke-linejoin="round" stroke-width="1.864"/>
      <line id="Line_264" data-name="Line 264" x2="7.442" transform="translate(129.867 3092.501)" fill="none" stroke="#424242" stroke-linecap="round" stroke-linejoin="round" stroke-width="1.864"/>
      <line id="Line_265" data-name="Line 265" x2="7.442" transform="translate(129.867 3106.068)" fill="none" stroke="#424242" stroke-linecap="round" stroke-linejoin="round" stroke-width="1.864"/>
      <line id="Line_266" data-name="Line 266" x2="5.514" transform="translate(146.607 3068.727)" fill="none" stroke="#424242" stroke-linecap="round" stroke-linejoin="round" stroke-width="1.864"/>
      <line id="Line_267" data-name="Line 267" x2="5.514" transform="translate(146.607 3086)" fill="none" stroke="#424242" stroke-linecap="round" stroke-linejoin="round" stroke-width="1.864"/>
      <line id="Line_268" data-name="Line 268" x2="5.514" transform="translate(146.607 3106.068)" fill="none" stroke="#424242" stroke-linecap="round" stroke-linejoin="round" stroke-width="1.864"/>
      <line id="Line_269" data-name="Line 269" x2="6.391" transform="translate(164.242 3106.068)" fill="none" stroke="#424242" stroke-linecap="round" stroke-linejoin="round" stroke-width="1.864"/>
      <line id="Line_270" data-name="Line 270" x2="9.288" transform="translate(179.379 3080.318)" fill="none" stroke="#424242" stroke-linecap="round" stroke-linejoin="round" stroke-width="1.864"/>
      <line id="Line_271" data-name="Line 271" x2="9.288" transform="translate(179.379 3092.728)" fill="none" stroke="#424242" stroke-linecap="round" stroke-linejoin="round" stroke-width="1.864"/>
      <line id="Line_272" data-name="Line 272" x2="9.288" transform="translate(179.379 3106.068)" fill="none" stroke="#424242" stroke-linecap="round" stroke-linejoin="round" stroke-width="1.864"/>
    </g>
  </g>
</svg>
