<svg xmlns="http://www.w3.org/2000/svg" width="98.558" height="87.555" viewBox="0 0 98.558 87.555">
  <g id="Hospitality_Icon" data-name="Hospitality Icon" transform="translate(-78 0)">
    <path id="Path_4229" data-name="Path 4229" d="M69.232,69.6C80.5,54.878,83.01,23.564,74.007,10.882,68.84,3.758,60.777,0,50.364,0,33.3,0,13.884,10.647,5.116,24.738c-6.185,9.864-6.732,20.354-1.8,30.375,8.768,17.223,24.034,27.87,39.848,27.87C53.417,82.983,62.656,78.286,69.232,69.6Z" transform="translate(162.357 1.448) rotate(91)" fill="#f4a114"/>
    <g id="Group_1043" data-name="Group 1043" transform="translate(-612.469 -2916.881)">
      <g id="Group_1041" data-name="Group 1041">
        <line id="Line_209" data-name="Line 209" y1="27.987" x2="27.987" transform="translate(749.062 2929.881)" fill="none" stroke="#424242" stroke-linecap="round" stroke-linejoin="round" stroke-width="2"/>
        <path id="Path_4731" data-name="Path 4731" d="M787.613,2940.445l-27.987,27.988a13.454,13.454,0,0,1-3.282,2.626c-.943.506-1.977.888-3.834,1.881l-2.625,1.4a17.8,17.8,0,0,0-4.208,3.12l-20.859,20.859h0l-3.948,3.948a3.993,3.993,0,0,1-5.643,0h0a3.991,3.991,0,0,1,0-5.643h0l26.256-26.256" fill="none" stroke="#424242" stroke-linecap="round" stroke-linejoin="round" stroke-width="2"/>
        <path id="Path_4732" data-name="Path 4732" d="M758.284,2969.773" fill="none" stroke="#424242" stroke-linecap="round" stroke-linejoin="round" stroke-width="2"/>
        <path id="Path_4733" data-name="Path 4733" d="M747.72,2959.21" fill="none" stroke="#424242" stroke-linecap="round" stroke-linejoin="round" stroke-width="2"/>
        <line id="Line_210" data-name="Line 210" y1="30.76" x2="30.76" transform="translate(751.571 2935.163)" fill="none" stroke="#424242" stroke-linecap="round" stroke-linejoin="round" stroke-width="2"/>
      </g>
      <g id="Group_1042" data-name="Group 1042">
        <path id="Path_4734" data-name="Path 4734" d="M715.789,2937.582a21.3,21.3,0,0,1,16.665,6.177l14.109,14.109c2.978,2.978,2.522,3.4,4.506,7.116l1.4,2.625a17.863,17.863,0,0,0,3.12,4.208l20.859,20.859h0l3.948,3.948a3.99,3.99,0,0,1,0,5.642h0a3.991,3.991,0,0,1-5.643,0h0l-24.807-24.807-39.477-39.477Z" fill="none" stroke="#424242" stroke-linecap="round" stroke-linejoin="round" stroke-width="2"/>
      </g>
    </g>
  </g>
</svg>
