<svg xmlns="http://www.w3.org/2000/svg" width="96" height="86.639" viewBox="0 0 96 86.639">
  <g id="Retail_-_Icon" data-name="Retail - Icon" transform="translate(-1093 -7751)">
    <path id="Path_4229" data-name="Path 4229" d="M69.232,69.6C80.5,54.878,83.01,23.564,74.007,10.882,68.84,3.758,60.777,0,50.364,0,33.3,0,13.884,10.647,5.116,24.738c-6.185,9.864-6.732,20.354-1.8,30.375,8.768,17.223,24.034,27.87,39.848,27.87C53.417,82.983,62.656,78.286,69.232,69.6Z" transform="translate(1177.357 7752.448) rotate(91)" fill="#f5a214"/>
    <g id="Group_1038" data-name="Group 1038" transform="translate(254.988 4923.768)">
      <path id="Path_4728" data-name="Path 4728" d="M851.012,2833.233h6.067a7.878,7.878,0,0,1,7.463,5.347l12.891,37.989h0a8.956,8.956,0,0,0-1.983,5.671c0,.123,0,.244.007.366a7.81,7.81,0,0,0,7.853,7.408h37.672" fill="none" stroke="#142737" stroke-linecap="round" stroke-linejoin="round" stroke-width="2"/>
      <path id="Path_4729" data-name="Path 4729" d="M866.656,2844.82h66.356l-5.068,20.168a9.91,9.91,0,0,1-8.636,7.445l-41.879,4.135" fill="none" stroke="#142737" stroke-linecap="round" stroke-linejoin="round" stroke-width="2"/>
      <circle id="Ellipse_124" data-name="Ellipse 124" cx="6.984" cy="6.984" r="6.984" transform="translate(869.158 2898.902)" fill="none" stroke="#142737" stroke-linecap="round" stroke-linejoin="round" stroke-width="2"/>
      <circle id="Ellipse_125" data-name="Ellipse 125" cx="6.984" cy="6.984" r="6.984" transform="translate(907.417 2898.902)" fill="none" stroke="#142737" stroke-linecap="round" stroke-linejoin="round" stroke-width="2"/>
    </g>
  </g>
</svg>
