<svg id="Deloitte_Logo" data-name="Deloitte Logo" xmlns="http://www.w3.org/2000/svg" width="214.725" height="39.805" viewBox="0 0 214.725 39.805">
  <path id="Path_13382" data-name="Path 13382" d="M341.952,292.034c3.477,0,4.528,3.177,4.528,4.921h-9.373A4.749,4.749,0,0,1,341.952,292.034Zm9.986,14.695a25.386,25.386,0,0,1-3.05.849,18.792,18.792,0,0,1-3.734.38c-4.112,0-7.332-1.369-7.859-4.628h17.544a20.349,20.349,0,0,0,.361-3.734c0-7.407-3.685-14.207-13.087-14.207-9.134,0-14,7.162-14,15.188,0,9.251,6.468,14.543,15.5,14.543a26.332,26.332,0,0,0,5.368-.489,21.706,21.706,0,0,0,4.37-1.368Z" transform="translate(-291.302 -275.324)" fill="#003a83"/>
  <path id="Path_13383" data-name="Path 13383" d="M521.761,292.034c3.477,0,4.528,3.177,4.528,4.921h-9.373A4.749,4.749,0,0,1,521.761,292.034Zm9.985,14.695a25.385,25.385,0,0,1-3.05.849,18.8,18.8,0,0,1-3.734.38c-4.112,0-7.331-1.369-7.858-4.628h17.544a20.365,20.365,0,0,0,.36-3.734c0-7.407-3.686-14.207-13.086-14.207-9.134,0-14,7.162-14,15.188,0,9.251,6.467,14.543,15.5,14.543a26.357,26.357,0,0,0,5.369-.489,21.705,21.705,0,0,0,4.368-1.368Z" transform="translate(-334.905 -275.324)" fill="#003a83"/>
  <path id="Path_13384" data-name="Path 13384" d="M369.543,272.939v38.552h9.513V272.939Z" transform="translate(-301.348 -272.305)" fill="#003a83"/>
  <path id="Path_13385" data-name="Path 13385" d="M402.582,308.079c-3.091,0-5.121-3.055-5.121-7.78,0-3.764,1.36-7.782,5.153-7.782,3.659,0,4.959,4.164,4.959,7.74C407.573,305,405.6,308.079,402.582,308.079Zm-.128,7.057c7.424,0,14.938-4.675,14.938-15.116,0-6.217-3.683-14.568-14.472-14.568-11.106,0-15.158,8.092-15.158,15.041C387.762,309.212,393.818,315.135,402.454,315.135Z" transform="translate(-305.766 -275.339)" fill="#003a83"/>
  <path id="Path_13386" data-name="Path 13386" d="M432.338,286.277v28.449h9.513V286.277Z" transform="translate(-316.576 -275.539)" fill="#003a83"/>
  <path id="Path_13387" data-name="Path 13387" d="M432.338,272.954v7.387h9.513v-7.387Z" transform="translate(-316.576 -272.309)" fill="#003a83"/>
  <path id="Path_13388" data-name="Path 13388" d="M453.674,275.722v7.737h-3.656v7.05h3.656v11.655c0,6.41,2.931,10.332,9.621,10.332a27.859,27.859,0,0,0,3.976-.324,21.133,21.133,0,0,0,2.747-.554c.008-.007-.07-7.43-.07-7.458a20.6,20.6,0,0,1-3.252.468,3.677,3.677,0,0,1-2.714-.929,4.269,4.269,0,0,1-1-3.127V290.509h6.149v-7.05h-6.149v-8.787Z" transform="translate(-320.863 -272.725)" fill="#003a83"/>
  <path id="Path_13389" data-name="Path 13389" d="M482.731,275.722v7.737h-3.656v7.05h3.656v11.655c0,6.41,2.931,10.332,9.621,10.332a27.812,27.812,0,0,0,3.975-.324,21.118,21.118,0,0,0,2.748-.554c.008-.007-.069-7.43-.069-7.458a20.589,20.589,0,0,1-3.252.468,3.675,3.675,0,0,1-2.713-.929,4.269,4.269,0,0,1-.995-3.127V290.509h6.147v-7.05h-6.147v-8.787Z" transform="translate(-327.909 -272.725)" fill="#003a83"/>
  <path id="Path_13390" data-name="Path 13390" d="M549.085,316.017a5.263,5.263,0,1,1,5.262,5.263A5.262,5.262,0,0,1,549.085,316.017Z" transform="translate(-344.887 -281.476)" fill="#96c032"/>
  <path id="Path_13391" data-name="Path 13391" d="M279.516,311.331h10.766c.729,0,1.61-.018,2.3-.054,14.735-.761,20.865-9.482,20.865-19.551,0-12.578-8.483-19.624-23.124-19.624-3.758,0-7.1.128-10.809.441Zm13.763-7.681c-.4.033-.99.048-1.371.048h-3.016s0-23.693,0-23.693c1.043-.093,2.368-.155,3.254-.155,5.531,0,11.424,3.588,11.424,11.877C303.57,300.373,298.032,303.257,293.279,303.65Z" transform="translate(-279.516 -272.102)" fill="#003a83"/>
</svg>
