<svg xmlns="http://www.w3.org/2000/svg" width="105.273" height="122.554" viewBox="0 0 105.273 122.554">
  <g id="EY_Logo" data-name="EY Logo" transform="translate(0.033)">
    <path id="Path_13402" data-name="Path 13402" d="M162.586,86.471l82.231-30.009h.009v15.5l-82.24,14.516Z" transform="translate(-162.514 -56.462)" fill="#ffe504"/>
    <g id="Group_1848" data-name="Group 1848" transform="translate(0 42.824)">
      <g id="Group_1847" data-name="Group 1847" transform="translate(0 52.648)">
        <path id="Path_13403" data-name="Path 13403" d="M167.338,475.156h2.479l.335-.067.268-.067.268-.133.134-.135.134-.133.067-.2.068-.4-.068-.266-.067-.2-.067-.2-.134-.133-.2-.134-.268-.068-.6-.065h-2.345Zm0,4.622h2.814l.335-.068.268-.134.2-.2.2-.2.134-.268.067-.268.067-.334-.067-.335-.067-.335-.134-.268-.134-.2-.267-.135-.268-.133-.268-.067h-2.882Zm-1.876,1.74v-10.38h4.422l.671.067.67.135.536.2.469.334.4.4.268.469.134.537.067.6-.067.267-.067.334-.067.268-.134.335-.2.2-.2.269-.2.2-.267.134.469.268.268.2.268.267.2.268.2.4.068.4.067.536-.067.737-.2.67-.267.536-.4.469-.536.4-.6.267-.737.135-.8.066Z" transform="translate(-164.725 -470.802)" fill="gray"/>
        <path id="Path_13404" data-name="Path 13404" d="M169.818,475.156h-2.479v-2.21h2.345l.6.065.268.068.2.134.134.133.067.2.067.2.068.266-.068.4-.067.2-.134.133-.134.135-.268.133-.268.067Zm0,4.622h-2.479v-2.947h2.882l.268.067.268.133.267.135.134.2.134.268.067.335.067.335-.067.334-.067.268-.134.267-.2.2-.2.2-.268.134-.335.068Zm3.619-1.542h0l-.067-.536-.068-.4-.2-.4-.2-.268-.268-.267-.268-.2-.469-.268.267-.134.2-.2.2-.268.2-.2.134-.335.067-.268.067-.334.067-.267-.067-.6-.134-.535-.268-.469-.4-.4-.469-.336-.536-.2-.67-.133-.67-.067h-4.423v10.38h4.356l.8-.068.737-.133.6-.267.536-.4.4-.469.267-.536.2-.67Z" transform="translate(-164.725 -470.802)" fill="none" stroke="#fff" stroke-width="0.05" opacity="0"/>
        <path id="Path_13405" data-name="Path 13405" d="M208.189,491.014l-.4-.067-.335-.067-.335-.2-.268-.133-.2-.268-.4-.469-.268-.536-.134-.6-.068-.535v-4.823h1.876v4.62l.068.4.134.268.134.266.2.2.2.133.335.135h.6l.335-.135.2-.133.2-.2.2-.266.067-.268.067-.4.067-.4v-4.219h1.809v7.568h-1.809v-.6l-.4.334-.4.268-.537.134-.536.068Z" transform="translate(-195.724 -480.163)" fill="gray"/>
        <path id="Path_13406" data-name="Path 13406" d="M208.591,491.08h0l.536-.066.537-.134.4-.268.4-.334v.6h1.809v-7.568h-1.809v4.219l-.067.4-.067.4-.067.268-.2.266-.2.2-.2.133-.335.133h-.6l-.335-.133-.2-.133-.2-.2-.134-.266-.134-.268-.068-.4v-4.62h-1.876v4.823l.067.535.134.6.268.536.4.469.2.268.268.133.335.2.335.067.4.067Z" transform="translate(-195.724 -480.163)" fill="none" stroke="#fff" stroke-width="0.05" opacity="0"/>
        <path id="Path_13407" data-name="Path 13407" d="M325.9,490.43v-4.622l-.068-.334-.134-.334-.133-.268-.2-.2-.2-.133-.335-.067-.268-.067-.335.067-.336.067-.2.133-.2.2-.2.268-.134.334-.067.334v4.622h-1.877v-7.568h1.877v.669l.4-.4.47-.2.469-.2h1.206l.536.2.469.268.4.4.335.469.2.6.134.67.067.8v4.287Z" transform="translate(-284.489 -479.713)" fill="gray"/>
        <path id="Path_13408" data-name="Path 13408" d="M323.089,486.276h0v-.469l.067-.334.134-.335.2-.267.2-.2.2-.133.335-.067.335-.067.268.067.335.067.2.133.2.2.133.267.134.335.068.334v4.622h1.876v-4.287l-.067-.8-.134-.67-.2-.6-.335-.469-.4-.4-.469-.267-.536-.2h-1.206l-.469.2-.47.2-.4.4v-.669h-1.877v7.568h1.877Z" transform="translate(-284.489 -479.713)" fill="none" stroke="#fff" stroke-width="0.05" opacity="0"/>
        <rect id="Rectangle_429" data-name="Rectangle 429" width="1.876" height="7.568" transform="translate(18.295 3.149)" fill="gray"/>
        <rect id="Rectangle_430" data-name="Rectangle 430" width="1.876" height="7.57" transform="translate(18.295 3.147)" fill="none" stroke="#fff" stroke-width="0.05" opacity="0"/>
        <path id="Path_13409" data-name="Path 13409" d="M256.535,480.4v-9.778l1.876-.937V480.4Z" transform="translate(-234.756 -469.687)" fill="gray"/>
        <path id="Path_13410" data-name="Path 13410" d="M256.535,480.4h1.876V469.682l-1.876.939Z" transform="translate(-234.756 -469.682)" fill="none" stroke="#fff" stroke-width="0.05" opacity="0"/>
        <path id="Path_13411" data-name="Path 13411" d="M273.538,474.437l-.268.068-.268.066-.2.2-.2.268-.134.4-.067.469-.067.6.067.67.067.536.134.4.2.266.267.2.2.133.268.133h.268l.4-.066.4-.2.268-.2.2-.266v-3.015l-.2-.2-.268-.268-.4-.2-.469-.066Zm-.8,6.1-.6-.2-.469-.334-.47-.469-.335-.6-.2-.67-.134-.8-.067-.871.067-.87.134-.8.267-.6.335-.6.4-.4.536-.334.536-.2.67-.068h.469l.469.133.4.2.335.334v-2.745l1.877-.938V480.4h-1.877v-.537l-.4.267-.4.269-.4.134-.469.066Z" transform="translate(-245.46 -469.682)" fill="gray"/>
        <path id="Path_13412" data-name="Path 13412" d="M273.806,478.857h-.268l-.268-.133-.2-.133-.267-.2-.2-.268-.134-.4-.067-.536-.067-.67.067-.6.067-.469.134-.4.2-.268.2-.2.268-.066.268-.068.2-.066.469.066.4.2.268.268.2.2v3.013l-.2.268-.268.2-.4.2Zm1.273-5.491h0l-.335-.334-.4-.2-.469-.133H273.4l-.67.067-.536.2-.536.335-.4.4-.335.6-.267.6-.134.8-.067.87.067.871.134.8.2.67.335.6.47.469.469.334.6.2.67.065.469-.065.4-.135.4-.268.4-.267v.536h1.877V469.682l-1.877.938Z" transform="translate(-245.46 -469.682)" fill="none" stroke="#fff" stroke-width="0.05" opacity="0"/>
        <path id="Path_13413" data-name="Path 13413" d="M454.836,475.1l-.4.134-.267.268-.269.335v2.946l.2.2.268.268.4.2.2.066h.268l.335-.066.268-.067.267-.2.2-.268.133-.335.069-.4.067-.469.067-.535-.067-.535-.067-.469-.135-.336-.2-.335-.2-.2-.268-.133-.268-.068-.2-.066Zm.267,6.1-.469-.135-.4-.268-.335-.267v.536h-1.876v-9.577l1.876-.939v3.484l.335-.268.47-.268.4-.133h.47l.67.067.535.2.536.334.4.4.336.6.267.6.133.8.068.87-.068.871-.133.8-.2.67-.335.6-.469.469-.469.334-.6.2-.67.065Z" transform="translate(-385.076 -470.347)" fill="gray"/>
        <path id="Path_13414" data-name="Path 13414" d="M455.238,475.035h0l.2.067.268.068.268.133.2.2.2.335.135.333.067.471.067.535-.067.535-.067.469-.069.4-.133.335-.2.268-.267.2-.268.067-.335.066h-.268l-.2-.066-.4-.2-.268-.27-.2-.2V475.84l.269-.335.267-.268.4-.134Zm.335-1.674h-.47l-.4.133-.47.268-.335.268v-3.484l-1.876.939v9.577H453.9v-.536l.335.267.4.268.469.135.47.065.67-.065.6-.2.469-.334.469-.469.335-.6.2-.669.133-.8.068-.871-.068-.87-.133-.8-.267-.6-.335-.6-.4-.4-.536-.334-.535-.2Z" transform="translate(-385.076 -470.347)" fill="none" stroke="#fff" stroke-width="0.05" opacity="0"/>
        <path id="Path_13415" data-name="Path 13415" d="M357.963,484.468l-.268.134-.2.2-.2.268-.134.4-.068.469-.067.6.067.669.068.469.134.469.2.268.2.2.268.133.268.133h.2l.469-.066.335-.2.335-.2.2-.268v-3.013l-.2-.268-.267-.2-.4-.2-.469-.067h-.268Zm-.67,7.568h.067l.8-.066.6-.134.4-.2.335-.267.134-.334.134-.336v-.8l-.4.267-.4.268-.4.135-.536.065-.6-.065-.6-.27-.469-.333-.469-.4-.335-.6-.2-.669-.2-.8v-1.741l.2-.8.2-.669.4-.536.4-.47.536-.268.536-.2.67-.067h.469l.469.133.4.268.335.268v-.536h1.876v6.9l-.067.87-.134.738-.335.669-.134.268-.268.267-.2.2-.268.2-.671.266-.737.2-.871.066Z" transform="translate(-310.586 -479.713)" fill="gray"/>
        <path id="Path_13416" data-name="Path 13416" d="M359.773,485.138v3.013l-.2.268-.336.2-.335.2-.469.068h-.2l-.268-.133-.268-.135-.2-.2-.2-.268-.134-.469-.066-.469-.068-.669.068-.6.066-.469.134-.4.2-.268.2-.2.268-.133.2-.067h.268l.469.067.4.2.268.2Zm0-1.741h0l-.335-.268-.4-.268-.469-.133H358.1l-.67.067-.536.2-.536.268-.4.47-.4.536-.2.669-.2.8v1.742l.2.8.2.669.335.6.469.4.469.334.6.268.6.067.536-.067.4-.133.4-.268.4-.267v.8l-.134.336-.134.334-.335.267-.4.2-.6.134-.8.066h-.067l.67,1.474.871-.066.738-.2.67-.266.268-.2.2-.2.268-.267.134-.268.335-.669.134-.738.067-.87v-6.9h-1.876Z" transform="translate(-310.586 -479.713)" fill="none" stroke="#fff" stroke-width="0.05" opacity="0"/>
        <path id="Path_13417" data-name="Path 13417" d="M405.328,486.946l-.2.067-.2.135-.134.133-.134.2-.067.2v.469l.067.268.134.2.134.135.2.133.2.067.268.067.268.068.469-.068.469-.2.268-.268.268-.268v-1.073L407,487.08l-.336-.134-.4-.068h-.67Zm-.335,3.616-.469-.066-.47-.2-.4-.266-.4-.4-.268-.469-.2-.536-.068-.669.068-.67.2-.536.335-.4.4-.333.469-.27.469-.133.536-.133h.939l.469.066.4.135.335.133v-.737l-.068-.268-.133-.2-.134-.133-.2-.134-.268-.066L406,484.2l-.536.067-.536.066-.469.2-.4.2-.737-1.274.67-.334.67-.268.737-.133H406.8l.6.133.535.268.47.268.335.4.268.4.134.536.068.6v5.09h-1.877v-.6l-.4.335-.535.268-.469.133-.4.067Z" transform="translate(-347.161 -479.713)" fill="gray"/>
        <path id="Path_13418" data-name="Path 13418" d="M404.591,487.951h0v-.269l.067-.2.134-.2.134-.135.2-.133.2-.067.268-.068h.67l.4.068.336.134.335.133v1.072l-.268.268-.268.266-.469.2-.469.068-.268-.068-.268-.067-.2-.067-.2-.133-.134-.135-.134-.2-.067-.268Zm-.537-3.215h0l.4-.2.469-.2.536-.068L406,484.2l.536.065.268.068.2.134.134.133.133.2.068.268v.737l-.335-.133-.4-.135-.469-.066h-.939l-.536.133-.469.133-.469.268-.4.335-.335.4-.2.536-.068.67.068.669.2.536.268.469.4.4.4.266.47.2.469.066.536.067.4-.067.468-.133.536-.268.4-.335v.6h1.876v-5.09l-.067-.6-.134-.536-.268-.4-.335-.4-.47-.268-.535-.268-.6-.133h-1.407l-.737.133-.67.268-.67.334Z" transform="translate(-347.161 -479.713)" fill="none" stroke="#fff" stroke-width="0.05" opacity="0"/>
        <path id="Path_13419" data-name="Path 13419" d="M487.3,484.334l-.268.067-.268.135-.2.2-.134.2-.134.268-.133.334v.336h2.814l-.068-.6L488.77,485l-.134-.2-.2-.2-.267-.2-.269-.067-.335-.068Zm-.268,6.228-.737-.268-.6-.334-.47-.4-.469-.6-.267-.67-.2-.737-.068-.871.068-.87.2-.737.267-.67.4-.6.535-.469.535-.335.67-.2.738-.067.67.067.6.2.536.335.469.469.4.536.268.671.134.8.067.87v.536h-4.69l.133.536.135.4.268.268.2.2.335.135.2.065.47.068.469-.068.4-.133.335-.2.268-.267,1.207,1.205-.335.268-.269.268-.335.2-.335.133-.67.268-.735.067Z" transform="translate(-409.83 -479.713)" fill="gray"/>
        <path id="Path_13420" data-name="Path 13420" d="M486.158,485.875h0v-.336l.133-.334.134-.268.134-.2.2-.2.268-.135.268-.067.267-.068.335.068.269.067.267.2.2.2.134.2.134.266.068.6Zm3.149,2.344h0l-.268.267-.335.2-.4.133-.469.068-.47-.068-.2-.065-.335-.135-.2-.2-.268-.268-.135-.4-.133-.536h4.69v-.536l-.067-.87-.134-.8-.268-.671-.4-.536-.469-.469-.536-.335-.6-.2-.67-.067-.738.067-.67.2-.535.335-.535.469-.4.6-.267.669-.2.738-.068.87.068.871.2.737.267.67.469.6.47.4.6.334.737.268.8.067.735-.067.67-.268.335-.133.336-.2.268-.268.335-.268Z" transform="translate(-409.83 -479.713)" fill="none" stroke="#fff" stroke-width="0.05" opacity="0"/>
        <path id="Path_13421" data-name="Path 13421" d="M565.543,484.334l-.27.067-.2.133-.2.2-.2.2-.133.268-.068.334v.336h2.814l-.134-.6-.067-.266-.135-.2-.2-.2-.269-.2-.267-.067-.335-.068Zm-.2,6.228-.738-.268-.6-.334-.537-.4-.4-.6-.335-.67-.135-.737-.067-.871.067-.87.135-.738.335-.669.4-.6.469-.469.6-.335.67-.2.67-.065.735.065.6.2.536.335.469.469.335.536.267.671.2.8.066.87v.536H564.4l.067.536.2.4.2.269.267.2.268.135.268.065.4.068.47-.068.4-.133.335-.2.335-.267,1.14,1.205-.268.268-.336.268-.267.2-.335.133-.738.268-.737.067Z" transform="translate(-470.05 -479.713)" fill="gray"/>
        <path id="Path_13422" data-name="Path 13422" d="M564.47,485.874h0v-.335l.068-.334.133-.268.2-.2.2-.2.2-.133.27-.067.335-.068.335.068.267.067.269.2.2.2.135.2.067.266.134.6Zm3.149,2.345h0l-.335.267-.335.2-.4.133-.47.068-.4-.068-.268-.066-.268-.134-.267-.2-.2-.269-.2-.4-.067-.536h4.691v-.536l-.066-.87-.2-.8-.267-.671-.335-.536-.469-.469-.536-.335-.6-.2-.735-.065-.67.065-.67.2-.6.335-.469.469-.4.6-.335.669-.135.738-.067.87.067.871.135.737.335.67.4.6.537.4.6.334.738.268.737.067.737-.067.738-.268.335-.133.267-.2.336-.268.268-.268Z" transform="translate(-470.05 -479.713)" fill="none" stroke="#fff" stroke-width="0.05" opacity="0"/>
        <path id="Path_13423" data-name="Path 13423" d="M540.843,481.419l-.469-.2-.335-.2-.268-.335-.2-.334-.135-.4-.067-.4-.068-.4v-3.684h-1.139v-1.741H539.3v-1.942l1.877-.938v2.88h1.743v1.741h-1.743v3.214l.068.471.133.268.134.133.134.067.335.066h.336l.268-.066.535-.268-.2,1.742-.335.2-.4.068-.4.066-.47.067Z" transform="translate(-451.315 -470.57)" fill="gray"/>
        <path id="Path_13424" data-name="Path 13424" d="M541.178,475.458h1.743v-1.741h-1.743v-2.88l-1.877.938v1.942h-1.139v1.741H539.3v3.684l.068.4.067.4.135.4.2.334.268.335.335.2.469.2.468.067.47-.067.4-.066.4-.068.335-.2.2-1.742-.535.268-.268.066h-.335l-.336-.066-.134-.067-.134-.133-.133-.268-.068-.471Z" transform="translate(-451.315 -470.57)" fill="none" stroke="#fff" stroke-width="0.05" opacity="0"/>
        <path id="Path_13425" data-name="Path 13425" d="M517.641,481.419l-.468-.2-.335-.2-.268-.335-.2-.334-.134-.4-.067-.4-.068-.4v-3.684h-1.139v-1.741H516.1v-1.942l1.877-.938v2.88h1.608v1.741h-1.608v3.214l.068.471.133.268.134.133.134.067.335.066h.335l.27-.066.535-.268-.2,1.742-.335.2-.4.068-.4.066-.47.067Z" transform="translate(-433.474 -470.57)" fill="gray"/>
        <path id="Path_13426" data-name="Path 13426" d="M519.919,479.343h0l-.535.268-.27.066h-.335l-.335-.066-.134-.067-.134-.133-.133-.268-.068-.471v-3.214h1.608v-1.741h-1.608v-2.88l-1.877.938v1.942h-1.139v1.741H516.1v3.684l.068.4.067.4.134.4.2.334.268.335.335.2.468.2.469.068.47-.068.4-.065.4-.068.335-.2Z" transform="translate(-433.474 -470.57)" fill="none" stroke="#fff" stroke-width="0.05" opacity="0"/>
        <path id="Path_13427" data-name="Path 13427" d="M596.169,490.425v-7.568h1.877v.669l.335-.4.4-.2.469-.2h.8l.4.066.335.2.335.133L600.592,485l-.268-.2-.268-.134-.335-.067h-.67l-.267.067-.2.134-.2.2-.133.268-.134.267-.068.4v4.486Z" transform="translate(-495.919 -479.71)" fill="gray"/>
        <path id="Path_13428" data-name="Path 13428" d="M601.129,483.124h0l-.335-.133-.335-.2-.4-.066h-.8l-.469.2-.4.2-.335.4v-.669h-1.877v7.568h1.877v-4.486l.068-.4.134-.267.133-.268.2-.2.2-.134.267-.067h.67l.335.067.27.134.267.2Z" transform="translate(-495.919 -479.71)" fill="none" stroke="#fff" stroke-width="0.05" opacity="0"/>
        <rect id="Rectangle_431" data-name="Rectangle 431" width="1.876" height="1.874" transform="translate(18.295 0.2)" fill="gray"/>
        <rect id="Rectangle_432" data-name="Rectangle 432" width="1.876" height="1.874" transform="translate(18.295 0.2)" fill="none" stroke="#fff" stroke-width="0.05" opacity="0"/>
        <rect id="Rectangle_433" data-name="Rectangle 433" width="1.876" height="7.569" transform="translate(33.171 3.146)" fill="gray"/>
        <rect id="Rectangle_434" data-name="Rectangle 434" width="1.876" height="7.569" transform="translate(33.171 3.146)" fill="none" stroke="#fff" stroke-width="0.05" opacity="0"/>
        <rect id="Rectangle_435" data-name="Rectangle 435" width="1.876" height="1.874" transform="translate(33.171 0.2)" fill="gray"/>
        <rect id="Rectangle_436" data-name="Rectangle 436" width="1.876" height="1.875" transform="translate(33.171 0.199)" fill="none" stroke="#fff" stroke-width="0.05" opacity="0"/>
        <path id="Path_13429" data-name="Path 13429" d="M519.224,531.825l-.2.134-.2.2-.2.267-.134.334-.135.537V534.5l.135.536.134.4.2.334.2.2.268.134.2.066h.735l.335-.2.269-.269.267-.266V532.5l-.2-.268-.335-.2-.335-.2-.469-.068h-.267Zm.135,6.1-.67-.066-.536-.2-.535-.335-.4-.469-.335-.536-.267-.736-.135-.737-.067-.938.067-.871.135-.737.267-.67.335-.536.4-.469.535-.334.6-.2.67-.068.4.068.469.133.4.2.4.336v-2.746l1.877-.938v10.716H521.1v-.6l-.4.335-.47.267-.4.134Z" transform="translate(-434.588 -513.81)" fill="gray"/>
        <path id="Path_13430" data-name="Path 13430" d="M519.76,536.178h-.267l-.2-.066-.268-.135-.2-.2-.2-.335-.134-.4-.135-.536V533.3l.135-.537.134-.334.2-.267.2-.2.2-.134.27-.068h.267l.469.068.335.2.335.2.2.268v2.946l-.267.268-.269.267-.335.2Zm1.341-5.424h0l-.4-.336-.4-.2-.469-.134-.4-.067-.67.067-.6.2-.536.333-.4.469-.335.536-.267.67-.135.737-.067.871.067.937.135.738.267.736.335.536.4.469.536.335.535.2.67.066h.47l.4-.134.47-.267.4-.335v.6h1.877V527.069l-1.877.938Z" transform="translate(-434.588 -513.81)" fill="none" stroke="#fff" stroke-width="0.05" opacity="0"/>
        <path id="Path_13431" data-name="Path 13431" d="M242.034,547.6v-7.568h1.876v.67l.335-.4.4-.267.4-.133.536-.068.335.068.4.065.335.135.335.2-.536,1.808-.268-.133-.335-.133-.268-.068-.335-.067-.335.067-.268.068-.268.133-.134.2-.2.2-.067.334-.067.334V547.6Z" transform="translate(-223.605 -523.62)" fill="gray"/>
        <path id="Path_13432" data-name="Path 13432" d="M246.992,540.3h0l-.335-.2-.335-.133-.4-.066-.335-.067-.536.067-.4.134-.4.267-.335.4v-.669h-1.876V547.6h1.876V543.04l.067-.334.067-.335.2-.2.134-.2.268-.135.268-.066.335-.067.335.067.268.066.335.135.268.133Z" transform="translate(-223.605 -523.62)" fill="none" stroke="#fff" stroke-width="0.05" opacity="0"/>
        <path id="Path_13433" data-name="Path 13433" d="M168.746,548.265l-.8-3.148-.469-1.674-.4,1.74-.8,3.082h-1.608l-.067-.067-2-7.236V540.7h1.8l.737,2.812.335,1.876.268-1.005.2-.937.8-2.746h1.608l.737,2.746.469,1.942.4-1.942.67-2.746H172.5l-2.145,7.568Z" transform="translate(-162.514 -524.29)" fill="gray"/>
        <g id="Group_1845" data-name="Group 1845" transform="translate(0 16.408)">
          <path id="Path_13434" data-name="Path 13434" d="M169.709,543.444h0l-.4,1.942-.469-1.942L168.1,540.7h-1.608l-.8,2.746-.2.937-.268,1.005-.335-1.876-.737-2.812h-1.877l2.077,7.5.067.067h1.608l.8-3.082.4-1.74.469,1.674.8,3.148h1.608l2.144-7.568h-1.877Z" transform="translate(-162.271 -540.698)" fill="none" stroke="#fff" stroke-width="0.05" opacity="0"/>
        </g>
        <path id="Path_13435" data-name="Path 13435" d="M210.042,541.769l-.267.2-.268.2-.134.335-.134.4-.067.4-.067.469.067.47.067.469.134.334.134.335.268.267.267.2.268.067.335.066.335-.066.268-.067.268-.2.268-.267.134-.335.133-.334.134-.469v-.939l-.134-.4-.133-.4-.134-.335-.268-.2-.268-.2-.268-.134h-.67Zm-.134,5.895-.67-.2-.536-.335-.536-.469-.4-.6-.335-.669-.134-.738-.067-.871.067-.8.134-.737.335-.737.4-.536.536-.469.536-.335.67-.267.738-.067.737.067.67.267.537.335.536.469.4.536.335.737.134.737.067.8-.067.871-.134.738-.335.669-.4.6-.536.469-.537.335-.67.2-.737.065Z" transform="translate(-196.841 -523.62)" fill="gray"/>
        <path id="Path_13436" data-name="Path 13436" d="M210.646,545.988h0l-.335-.068-.268-.065-.267-.2-.268-.268-.134-.335-.134-.334-.067-.47-.067-.469.067-.469.067-.4.134-.4.134-.333.268-.2.267-.2.268-.134h.67l.268.134.268.2.268.2.134.333.133.4.134.4v.937l-.134.47-.133.334-.134.335-.268.268-.268.2-.268.065Zm0-6.161h0l-.738.067-.67.267-.536.335-.536.469-.4.536-.335.737-.134.737-.067.8.067.871.134.737.335.67.4.6.536.469.536.335.67.2.738.067.737-.067.67-.2.537-.335.536-.469.4-.6.335-.67.134-.737.067-.871-.067-.8-.134-.737-.335-.737-.4-.536-.536-.469-.537-.335-.67-.267Z" transform="translate(-196.841 -523.62)" fill="none" stroke="#fff" stroke-width="0.05" opacity="0"/>
        <path id="Path_13437" data-name="Path 13437" d="M477.258,547.6v-7.569h1.877v.67l.4-.4.4-.268.4-.133.47-.067.4.067.4.066.335.133.267.2-.468,1.808-.267-.133-.335-.135-.335-.066-.335-.068-.269.068-.267.066-.268.135-.2.2-.135.2-.067.335-.068.334-.066.469V547.6Z" transform="translate(-404.482 -523.62)" fill="gray"/>
        <path id="Path_13438" data-name="Path 13438" d="M482.215,540.3h0l-.267-.2-.335-.133-.4-.066-.4-.067-.47.067-.4.133-.4.268-.4.4v-.67h-1.877V547.6h1.877v-4.087l.066-.469.068-.334.067-.335.135-.2.2-.2.268-.134.267-.066.269-.068.335.068.335.066.335.134.267.134Z" transform="translate(-404.482 -523.62)" fill="none" stroke="#fff" stroke-width="0.05" opacity="0"/>
        <path id="Path_13439" data-name="Path 13439" d="M403.794,548.262l-.872-3.15-.4-1.674-.4,1.742-.871,3.082h-1.608v-.067l-2.144-7.5h1.943l.67,2.812.4,1.877.2-1.005.268-.939.8-2.745h1.541l.8,2.745.469,1.944.4-1.944.67-2.745h1.877l-2.145,7.569Z" transform="translate(-343.148 -524.286)" fill="gray"/>
        <path id="Path_13440" data-name="Path 13440" d="M405,543.438h0l-.4,1.942-.469-1.942-.8-2.745h-1.541l-.8,2.745-.268.939-.2,1-.4-1.875-.67-2.812h-1.943l2.144,7.5v.068h1.608l.871-3.082.4-1.742.4,1.674.872,3.15H405.4l2.145-7.569h-1.877Z" transform="translate(-343.148 -524.286)" fill="none" stroke="#fff" stroke-width="0.05" opacity="0"/>
        <path id="Path_13441" data-name="Path 13441" d="M445.268,541.769l-.268.2-.2.2-.2.335-.134.4-.068.4v.938l.068.469.134.335.2.336.2.268.268.2.335.066.335.068.335-.068.267-.066.269-.2.2-.268.2-.336.134-.335.067-.469v-.938l-.067-.4-.134-.4-.2-.335-.2-.2-.269-.2-.267-.135h-.67Zm-.068,5.893-.67-.2-.6-.335-.469-.469-.4-.6-.335-.67-.2-.737-.066-.871.066-.805.2-.735.335-.671.4-.6.469-.469.6-.334.67-.269.738-.065.67.065.67.269.6.334.469.469.469.6.267.671.2.735.067.805-.067.871-.2.737-.267.67-.469.6-.469.469-.6.335-.67.2-.67.067Z" transform="translate(-377.72 -523.62)" fill="gray"/>
        <path id="Path_13442" data-name="Path 13442" d="M445.938,545.988h0l-.335-.068-.335-.066-.268-.2-.2-.268-.2-.336-.134-.335-.068-.469v-.938l.068-.4.134-.4.2-.335.2-.2.268-.2.335-.135h.67l.267.135.269.2.2.2.2.335.134.4.067.4v.938l-.067.469-.134.335-.2.336-.2.268-.269.2-.267.066Zm0-6.161h0l-.738.065-.67.268-.6.335-.469.469-.4.6-.335.671-.2.735-.066.8.066.872.2.737.335.669.4.6.469.47.6.335.67.2.738.067.67-.067.67-.2.6-.335.469-.47.469-.6.267-.669.2-.737.067-.872-.067-.8-.2-.735-.267-.671-.469-.6-.469-.469-.6-.335-.67-.268Z" transform="translate(-377.72 -523.62)" fill="none" stroke="#fff" stroke-width="0.05" opacity="0"/>
        <path id="Path_13443" data-name="Path 13443" d="M271.689,537.786l-1.608-3.55-.939,1.273v2.278h-1.876v-9.779l1.876-.937V533.1l.67-.938,1.474-1.942H273.5l-2.01,2.477,2.278,5.092Z" transform="translate(-243.007 -513.81)" fill="gray"/>
        <path id="Path_13444" data-name="Path 13444" d="M273.5,530.217h-2.212l-1.474,1.942-.67.938v-6.028l-1.876.937v9.779h1.876v-2.278l.939-1.273,1.608,3.551h2.077l-2.278-5.092Z" transform="translate(-243.007 -513.81)" fill="none" stroke="#fff" stroke-width="0.05" opacity="0"/>
        <path id="Path_13445" data-name="Path 13445" d="M320.395,547.589v-4.623l-.067-.4-.134-.334-.134-.2-.2-.2-.2-.133-.268-.134h-.67l-.335.134-.2.133-.2.2-.2.268-.067.268-.068.4-.067.4v4.22H315.7v-7.571h1.876v.6l.4-.334.47-.27.469-.133.6-.067.6.067.6.2.469.267.4.336.268.537.2.6.134.67.067.8v4.288Z" transform="translate(-280.254 -523.614)" fill="gray"/>
        <path id="Path_13446" data-name="Path 13446" d="M317.58,543.369h0l.067-.4.068-.4.067-.268.2-.267.2-.2.2-.133.335-.134h.67l.268.134.2.133.2.2.134.2.134.333.067.4v4.623h1.876V543.3l-.067-.8-.134-.67-.2-.6-.268-.537-.4-.336-.469-.267-.6-.2-.6-.067-.6.067-.469.133-.469.27-.4.333v-.6H315.7v7.571h1.876Z" transform="translate(-280.254 -523.614)" fill="none" stroke="#fff" stroke-width="0.05" opacity="0"/>
        <path id="Path_13447" data-name="Path 13447" d="M352.452,541.627l-.268.133-.2.2-.2.27-.134.333-.066.536-.068.537.068.67.066.536.134.4.2.335.268.2.2.133.268.067h.67l.335-.2.335-.268.2-.268V542.3l-.2-.267-.268-.2-.4-.2-.469-.067h-.2Zm-.67,7.569h.067l.8-.068.6-.133.4-.267.335-.269.134-.267.134-.335v-.87l-.335.334-.469.2-.4.2h-.469l-.67-.068-.6-.2-.469-.335-.469-.469-.335-.535-.2-.739-.133-.8-.068-.871.068-.87.133-.737.268-.67.335-.536.4-.469.536-.336.536-.2.67-.067.469.067.469.133.4.2.335.334v-.536h1.876v6.832l-.067.872-.134.8-.268.67-.2.267-.2.2-.268.266-.268.2-.67.269-.738.2-.871.068Z" transform="translate(-306.347 -523.613)" fill="gray"/>
        <g id="Group_1846" data-name="Group 1846" transform="translate(43.29 16.205)">
          <path id="Path_13448" data-name="Path 13448" d="M354.261,542.3v2.947l-.2.268-.335.268-.335.2h-.67l-.268-.067-.2-.133-.268-.2-.2-.335-.134-.4-.066-.536-.068-.67.068-.537.066-.536.134-.335.2-.268.2-.2.268-.134.268-.066h.2l.469.066.4.2.268.2Zm0-1.741h0l-.335-.334-.4-.2-.469-.133-.469-.067-.67.067-.536.2-.536.336-.4.469-.335.536-.268.67-.133.737-.068.87.068.871.133.8.2.739.335.535.469.469.469.335.6.2.67.068h.469l.4-.2.469-.2.335-.335v.871l-.134.335-.134.267-.335.268-.4.268-.6.133-.8.068h-.067l.67,1.474.871-.068.738-.2.67-.266.268-.2.268-.266.2-.2.2-.267.268-.67.134-.8.067-.872v-6.832h-1.876Z" transform="translate(-349.637 -539.818)" fill="none" stroke="#fff" stroke-width="0.05" opacity="0"/>
        </g>
        <rect id="Rectangle_437" data-name="Rectangle 437" width="1.877" height="7.569" transform="translate(31.898 16.405)" fill="gray"/>
        <rect id="Rectangle_438" data-name="Rectangle 438" width="1.877" height="7.569" transform="translate(31.898 16.405)" fill="none" stroke="#fff" stroke-width="0.05" opacity="0"/>
        <rect id="Rectangle_439" data-name="Rectangle 439" width="1.877" height="1.876" transform="translate(31.898 13.458)" fill="gray"/>
        <rect id="Rectangle_440" data-name="Rectangle 440" width="1.877" height="1.876" transform="translate(31.898 13.458)" fill="none" stroke="#fff" stroke-width="0.05" opacity="0"/>
        <path id="Path_13449" data-name="Path 13449" d="M502.782,537.781V528l1.875-.938v10.715Z" transform="translate(-424.109 -513.807)" fill="gray"/>
        <path id="Path_13450" data-name="Path 13450" d="M502.782,537.781h1.875V527.065l-1.875.938Z" transform="translate(-424.109 -513.807)" fill="none" stroke="#fff" stroke-width="0.05" opacity="0"/>
      </g>
      <path id="Path_13451" data-name="Path 13451" d="M165.462,284.41v-42.6h24.191l5.629,9.778H178.194v7.033h15.479V267.6H178.194v7.033h21.377v9.779Z" transform="translate(-164.725 -241.813)" fill="gray"/>
      <path id="Path_13452" data-name="Path 13452" d="M178.194,267.6h15.479v-8.974H178.194v-7.033h17.088l-5.629-9.778H165.462v42.6h34.109v-9.779H178.194Z" transform="translate(-164.725 -241.813)" fill="none" stroke="#fff" stroke-width="0.05" opacity="0"/>
      <path id="Path_13453" data-name="Path 13453" d="M302.444,284.41V267.6l-14.877-25.785h14.14l7.17,13.931,7.238-13.931H330.12L315.176,267.6V284.41Z" transform="translate(-258.618 -241.813)" fill="gray"/>
      <path id="Path_13454" data-name="Path 13454" d="M316.115,241.813l-7.238,13.931-7.17-13.931h-14.14L302.444,267.6V284.41h12.732V267.6l14.944-25.785Z" transform="translate(-258.618 -241.813)" fill="none" stroke="#fff" stroke-width="0.05" opacity="0"/>
    </g>
  </g>
</svg>
