<svg id="KPMG_Logo" data-name="KPMG Logo" xmlns="http://www.w3.org/2000/svg" width="157.851" height="61.546" viewBox="0 0 157.851 61.546">
  <path id="Path_13364" data-name="Path 13364" d="M469.76,719.66l-2.063-5.025-1.568,5.025Z" transform="translate(-452.993 -671.057)" fill="#00428b" fill-rule="evenodd"/>
  <path id="Path_13365" data-name="Path 13365" d="M540.4,719.075l-.615-10.187-3.016,10.187Z" transform="translate(-460.187 -670.472)" fill="#00428b" fill-rule="evenodd"/>
  <path id="Path_13366" data-name="Path 13366" d="M496.136,695.879V666.116H461.742v30.1l1.151-3.836.265-.881h9.953l-.481,1.594c-.758,2.508-1.864,6.171-3.063,10.148l11.282-11.375.362-.366h12.7l-2.29,2.14L476,708.232l3.038,6.487h11.414l5.684-18.84Z" transform="translate(-452.547 -666.116)" fill="#00428b" fill-rule="evenodd"/>
  <path id="Path_13367" data-name="Path 13367" d="M504.146,666.116V691.5h6.946c5.336-.065,10.853-.132,13.671,3.212,1.6,1.9,2.061,4.577,1.4,8.171-.611,3.306-3.521,10.991-17.326,10.976l-4.489,0-.2.66v.2H524.8l6.846-22.351.268-.874h6.628V666.116Z" transform="translate(-456.865 -666.116)" fill="#00428b" fill-rule="evenodd"/>
  <path id="Path_13368" data-name="Path 13368" d="M562.768,719.169l2.782-9.359-6.048,9.359Z" transform="translate(-462.502 -670.565)" fill="#00428b" fill-rule="evenodd"/>
  <path id="Path_13369" data-name="Path 13369" d="M571.11,714.719h3.934a20.376,20.376,0,0,1,.96-6.04,34.589,34.589,0,0,1,4.943-10.512V666.116h-34.4v25.379h2.4l.107,1.116a202.566,202.566,0,0,1,.822,21.5,156.506,156.506,0,0,1,13.629-22.107l.37-.514H576.9l-.382,1.535-5.405,21.69Z" transform="translate(-461.183 -666.116)" fill="#00428b" fill-rule="evenodd"/>
  <path id="Path_13370" data-name="Path 13370" d="M588.957,666.116v28.216c3.816-2.93,8.063-3.53,12.08-3.53,5.133,0,9.175,1.7,11.38,4.794a8.846,8.846,0,0,1,1.164,8.112l-.287.834h-.883l-6.755-.008-1.977,0,.861-1.763c.016-.044.042-.164.06-.245.026-.119.056-.253.1-.392a3.1,3.1,0,0,0-.1-2.686c-.589-.83-2.062-1.324-4.257-1.428-5-.235-8.251,3.21-10.545,11.172a21.643,21.643,0,0,0-.835,4.362v1.168h12.034l.047-.148h-7.331l.5-1.6,1.55-4.971.27-.87H612.5l-.441,1.57-1.69,6.023h12.987v-48.6Z" transform="translate(-465.501 -666.116)" fill="#00428b" fill-rule="evenodd"/>
  <path id="Path_13371" data-name="Path 13371" d="M562.768,719.169l2.782-9.359-6.048,9.359Z" transform="translate(-462.502 -670.565)" fill="#00428b" fill-rule="evenodd"/>
  <path id="Path_13372" data-name="Path 13372" d="M572.919,694.372H561.486l-.37.514a156.518,156.518,0,0,0-13.629,22.107,202.6,202.6,0,0,0-.822-21.5l-.107-1.116H533.835l-.268.874L523.5,728.1l-.489,1.6h8.769l.261-.886,6.338-21.407,1.276,21.13.07,1.162h8.235l.366-.566,13.5-20.9-5.909,19.876-.473,1.589H565.7l.233-.938,8.189-32.858.382-1.535Z" transform="translate(-458.786 -668.993)" fill="#00428b" fill-rule="evenodd"/>
  <path id="Path_13373" data-name="Path 13373" d="M564.921,728.606H557.3l8.365-28.14-18.184,28.14h-6.4l-1.7-28.145-8.333,28.145h-6.175l10.065-32.857h10.686s1.632,16.865.379,28.426c0,0,3.179-10.213,16.3-28.426h10.8l-8.188,32.857Z" transform="translate(-458.976 -669.134)" fill="#fff" fill-rule="evenodd"/>
  <path id="Path_13374" data-name="Path 13374" d="M611.329,698.4c-2.205-3.092-6.247-4.794-11.38-4.794-7.555,0-15.925,2.123-20.714,17.877-2.079,6.836-.416,11.1,1.346,13.482,3.006,4.056,8.224,5.5,12.105,5.5,4.149,0,10.683-.678,12.891-1.553l.569-.226.164-.589,4.656-16.6.441-1.57h-16.47l-.27.87-1.55,4.971-.5,1.6h7.331l-1.724,5.434a12.163,12.163,0,0,1-4.113.441c-2.461.008-4.21-.65-5.2-1.958-1.369-1.812-1.441-5.028-.211-9.3,2.293-7.962,5.544-11.408,10.544-11.172,2.2.1,3.668.6,4.257,1.428a3.1,3.1,0,0,1,.1,2.686c-.041.139-.071.274-.1.392-.018.081-.044.2-.06.245l-.861,1.763,1.977,0,6.755.008h.883l.287-.834a8.846,8.846,0,0,0-1.164-8.112Z" transform="translate(-464.413 -668.915)" fill="#00428b" fill-rule="evenodd"/>
  <path id="Path_13375" data-name="Path 13375" d="M611.462,706.245l-6.754-.008a5.863,5.863,0,0,0,.224-.815c1.168-3.919-1.242-5.5-5.487-5.7-6.267-.3-9.657,4.659-11.79,12.064-2.3,7.985-.365,12.86,6.6,12.836,5.536-.018,5.24-1.159,5.24-1.159l2.281-7.188h-7.34l1.55-4.972h13.93l-4.656,16.6c-1.861.738-8.041,1.467-12.435,1.467-6.613,0-16.218-4.406-12.27-17.389,4.723-15.531,12.919-17,19.532-17,9.665,0,13.108,6.234,11.374,11.268Z" transform="translate(-464.552 -669.055)" fill="#fff" fill-rule="evenodd"/>
  <path id="Path_13376" data-name="Path 13376" d="M492.871,694.376h-12.7l-.362.367-11.282,11.375c1.2-3.977,2.3-7.64,3.063-10.147l.481-1.594h-9.953l-.265.881-9.867,32.872-.479,1.592h10.034l.208-.98c.119-.477,2.234-7.526,4.565-15.274l6.251,15.481.312.773h10.8l-.824-1.76-7.894-16.851,15.622-14.594,2.29-2.14Z" transform="translate(-451.504 -668.994)" fill="#00428b" fill-rule="evenodd"/>
  <path id="Path_13377" data-name="Path 13377" d="M460.724,728.625h-7.37l9.868-32.872h7.37s-9.725,32.2-9.868,32.872Z" transform="translate(-451.692 -669.134)" fill="#fff" fill-rule="evenodd"/>
  <path id="Path_13378" data-name="Path 13378" d="M467.966,710.274h-.006l14.4-14.521h9.052l-16.279,15.208,8.275,17.664h-8.025l-7.422-18.384,0,.033Z" transform="translate(-453.18 -669.134)" fill="#fff" fill-rule="evenodd"/>
  <path id="Path_13379" data-name="Path 13379" d="M523.285,697.584c-2.818-3.344-8.335-3.277-13.671-3.212H500.3l-.264.879-9.916,32.874-.48,1.592h9.345l.263-.882,3.62-12.1,4.489,0c13.8.015,16.715-7.669,17.326-10.976.665-3.594.208-6.267-1.4-8.171Z" transform="translate(-455.387 -668.992)" fill="#00428b" fill-rule="evenodd"/>
  <path id="Path_13380" data-name="Path 13380" d="M523.654,705.671c-.98,5.3-5.613,9.976-16.11,9.964l-5.41,0-3.883,12.985H491.49l9.916-32.874h8.377c7.579-.092,15.743-.208,13.871,9.923Z" transform="translate(-455.576 -669.132)" fill="#fff" fill-rule="evenodd"/>
  <path id="Path_13381" data-name="Path 13381" d="M504.764,711.346c2.442,0,4.227.038,5.87.007,4.94-.089,6.454-1.8,7.568-5.147,1.932-5.812-3.013-5.2-10.426-5.193l-3.013,10.333Z" transform="translate(-456.928 -669.667)" fill="#00428b" fill-rule="evenodd"/>
</svg>
